<?xml version="1.0" encoding="iso-8859-1"?>
<!-- Generator: Adobe Illustrator 19.0.0, SVG Export Plug-In . SVG Version: 6.00 Build 0)  -->
<svg version="1.1" id="Capa_1" xmlns="http://www.w3.org/2000/svg" xmlns:xlink="http://www.w3.org/1999/xlink" x="0px" y="0px"
	 viewBox="0 0 472 472" style="enable-background:new 0 0 472 472;" xml:space="preserve">
<path style="fill:#DE0418;" d="M236,0c0,101.62-82.38,184-184,184v16h360v-16h8C318.38,184,236,101.62,236,0z"/>
<g>
	<path style="fill:#36717A;" d="M132,200h16v96h-16V200z"/>
	<path style="fill:#36717A;" d="M356,200h16v96h-16V200z"/>
</g>
<path style="fill:#FDB62F;" d="M276,176L236,0l-40,176l40,16L276,176z"/>
<path style="fill:#FF421D;" d="M44,192v16h64v-16c0-17.673-14.327-32-32-32S44,174.327,44,192z"/>
<path style="fill:#FDB62F;" d="M108,192v16h64v-16c0-17.673-14.327-32-32-32S108,174.327,108,192z"/>
<path style="fill:#FF421D;" d="M172,192v16h64v-16c0-17.673-14.327-32-32-32S172,174.327,172,192z"/>
<path style="fill:#FDB62F;" d="M236,192v16h64v-16c0-17.673-14.327-32-32-32S236,174.327,236,192z"/>
<path style="fill:#FF421D;" d="M300,192v16h64v-16c0-17.673-14.327-32-32-32S300,174.327,300,192z"/>
<path style="fill:#FDB62F;" d="M364,192v16h64v-16c0-17.673-14.327-32-32-32S364,174.327,364,192z"/>
<path style="fill:#6CBBC7;" d="M92,296l-16,16H60v-24c0-17.673,14.327-32,32-32c10.072,0,19.557,4.742,25.6,12.8L132,288h40
	c8.837,0,16,7.163,16,16v40l-24,32l16.152-34.616L140,328l-48,16l16,32l-24-32l8-24V296z"/>
<path style="fill:#DE0418;" d="M220,208h32v200h-32V208z"/>
<path style="fill:#FF421D;" d="M60,408h352v32H60V408z"/>
<path style="fill:#FDB62F;" d="M44,440h384v32H44V440z"/>
<path style="fill:#6CBBC7;" d="M316,296l-16,16h-16v-24c0-17.673,14.327-32,32-32c10.072,0,19.557,4.742,25.6,12.8L356,288h40
	c8.837,0,16,7.163,16,16v40l-24,32l16.152-34.616L364,328l-48,16l16,32l-24-32l8-24V296z"/>
<g>
</g>
<g>
</g>
<g>
</g>
<g>
</g>
<g>
</g>
<g>
</g>
<g>
</g>
<g>
</g>
<g>
</g>
<g>
</g>
<g>
</g>
<g>
</g>
<g>
</g>
<g>
</g>
<g>
</g>
</svg>
