<svg height="511pt" viewBox="1 1 511 511.99914" width="511pt" xmlns="http://www.w3.org/2000/svg"><path d="m431.042969 23.273438c32.132812 0 58.183593 26.046874 58.183593 58.179687s-26.050781 58.183594-58.183593 58.183594c-32.132813 0-58.179688-26.050781-58.179688-58.183594.035157-32.117187 26.0625-58.144531 58.179688-58.179687m0-23.273438c-44.984375 0-81.453125 36.46875-81.453125 81.453125 0 44.988281 36.46875 81.457031 81.453125 81.457031 44.988281 0 81.457031-36.46875 81.457031-81.457031 0-44.984375-36.46875-81.453125-81.457031-81.453125zm0 0" fill="#e1811c"/><path d="m419.40625 128c0 19.277344-15.628906 34.910156-34.90625 34.910156-19.28125 0-34.910156-15.632812-34.910156-34.910156 0-19.28125 15.628906-34.910156 34.910156-34.910156 19.277344 0 34.90625 15.628906 34.90625 34.910156zm0 0" fill="#f0a319"/><path d="m396.136719 116.363281c0 12.851563-10.421875 23.273438-23.273438 23.273438-12.855469 0-23.273437-10.421875-23.273437-23.273438 0-12.851562 10.417968-23.273437 23.273437-23.273437 12.851563 0 23.273438 10.421875 23.273438 23.273437zm0 0" fill="#fbe9cc"/><path d="m442.679688 290.910156c0 122.101563-98.984376 221.089844-221.089844 221.089844-122.105469 0-221.089844-98.988281-221.089844-221.089844 0-122.105468 98.984375-221.09375 221.089844-221.09375 122.105468 0 221.089844 98.988282 221.089844 221.09375zm0 0" fill="#f0a319"/><path d="m356.382812 118.941406c-6.425781-.003906-11.640624 5.207032-11.640624 11.632813-.003907 3.433593 1.511718 6.695312 4.140624 8.90625 44.746094 37.5625 70.566407 93.007812 70.523438 151.429687 0 109.074219-88.738281 197.816406-197.816406 197.816406-47.65625.011719-93.710938-17.191406-129.691406-48.441406-4.851563-4.214844-12.203126-3.695312-16.414063 1.15625-4.210937 4.851563-3.695313 12.195313 1.148437 16.410156 5.117188 4.445313 10.433594 8.65625 15.953126 12.628907l.003906.003906.117187.082031.007813.007813c.320312.230469.648437.464843.972656.695312l.007812.003907.113282.082031.011718.007812.109376.078125.015624.011719.109376.078125.011718.007812c.039063.027344.078125.054688.117188.082032.246094.171875.488281.34375.734375.515625l.007812.007812c.039063.027344.074219.046875.113281.074219l.015626.011719.101562.074219.03125.019531.097656.070312.027344.015625.097656.070313.03125.019531.097656.070312.128907.085938.011719.011719c.15625.105469.316406.21875.472656.324219l.015625.011718.105469.074219.019531.011719c.03125.023437.066406.046875.097656.070312l.035156.023438.089844.0625.039063.027344c.03125.019531.058593.039062.089843.058593l.042969.03125.085938.058594.039062.027344.089844.0625.035156.023437.097656.0625.015625.015625c.117188.078125.234375.15625.347657.234375l.015624.007813.085938.0625.042969.027343.078125.050782.054687.039062.078125.054688.050782.03125.082031.054687.046875.035157.085937.054687.046875.03125.078125.054687.128907.085938.0625.042969.128906.085937.074218.050782c.039063.027343.085938.058593.125.085937l.03125.019531c.03125.019532.070313.046875.101563.066406l.0625.042969.070313.042969.066406.046875.0625.042969.066406.042968.128906.085938.074219.050781.058594.035157.082031.058593.046875.03125.089844.058594.042969.027344.101562.066406.03125.023437c.042969.027344.074219.046876.113281.074219l.023438.011719.132812.089844.003907.003906.128906.085938.042968.027343c.03125.019531.0625.042969.09375.058594l.039063.03125c.03125.015625.066406.042969.09375.058594l.042969.027343c.03125.019532.066406.042969.09375.0625l.039062.027344.097656.0625.042969.027344.09375.0625.039063.023438.097656.066406.039062.023437.109376.070313.023437.015625c.039063.027343.082031.054687.125.082031l.011719.007812c.089844.058594.183594.117188.277344.179688l.003906.003906.132812.082032.011719.011718.117187.074219.035157.023437c.035156.023438.066406.042969.101562.066407l.035157.019531.101562.066406.035156.023438.105469.066406.03125.023438.101563.0625.035156.023437c.042968.027344.082031.050781.121094.078125l.011718.007812c.1875.117188.371094.234376.558594.355469l.007812.003907c.046876.03125.082032.054687.128907.082031l.011719.011719c.042968.023437.082031.050781.125.078124l.019531.011719.117187.074219.019532.011719.128906.082031.007812.003906c.28125.175782.558594.351563.84375.527344v.003906l.136719.085938.011719.003906.128906.082031.007812.003907.136719.085937.003907.003906c25.1875 15.683594 53.289062 26.101563 82.613281 30.628907h.003906l.167969.023437h.003906c.054688.011719.109375.019531.167969.027344h.003906c.457031.070312.910156.136719 1.367187.203125l.007813.003906c.058594.007812.109375.015625.167969.023438.515625.074218 1.03125.148437 1.546875.21875h.003906l.167969.023437.003906.003906c.058594.007813.109375.011719.164062.019531l.011719.003907c.34375.046875.683594.089843 1.03125.136719.058594.007812.113281.015624.167969.023437h.011719l.15625.023437h.019531l.152344.019532.019531.003906.152344.019531.019531.003907.160156.019531h.007813c.289062.039062.570312.074219.859375.109375h.011718l.15625.019531.019532.003906.148437.019531h.027344l.148437.019532.019532.003906.148437.015625.023438.003906.164062.019531c.289063.035157.578125.070313.867188.101563h.003906c.058594.007813.109375.015625.164063.019531l.015624.003906.148438.015626.035156.003906.136719.015625.03125.003906.144531.015625.023438.003906c.058594.007813.101562.011719.160156.015625l.007812.003907c.230469.023437.457032.050781.691407.074218l.015625.003906.148437.015626.039063.003906c.042968.003906.085937.007812.128906.015625l.171875.015625.039063.003906.132812.015625.039062.003906.132813.011719.035156.003906c.042969.007813.105469.011719.148438.015625l.019531.003907.164062.015624h.003907c.117187.015626.230469.023438.347656.039063h.015625c.050781.003906.101562.011719.152344.015625l.03125.003906.136718.011719.039063.003906.132813.011719.042968.003906c.042969.007813.082032.011719.125.015625l.042969.003907.132813.011718.035156.003906c.046875.003907.09375.007813.136718.011719l.035157.003907.144531.015624h.023438c.234374.023438.457031.046876.6875.066407h.019531c.050781.007812.101562.011719.152343.015625l.027344.003906.140625.011719.035157.003906c.042968.003906.09375.007813.136718.011719l.039063.003906.171875.015625c.042968.003906.082031.007813.125.011719l.046875.003906.136719.011719h.03125c.171874.015625.339843.03125.515624.046875h.011719l.15625.015625h.035157c.042968.003906.089843.007812.132812.011719l.042969.003906c.042969.003906.085937.007812.128906.011718l.046875.003907.121094.007812.050781.007813.121094.007812.046875.003906.128906.011719.039062.003907.140626.007812.03125.003906.15625.011719h.011718c.117188.011719.230469.019531.347656.03125h.023438c.042969.003906.097656.007813.140625.011719l.054687.003906c.035157.003906.078126.003906.117188.007812l.054688.003907.117187.011719h.050781l.117188.011718.054687.003906c.042969.003907.074219.003907.121094.007813l.046875.003906.121094.007813.050781.003906.132813.011719h.035156c.050781.003906.105468.007812.15625.011719h.015625l.34375.027343h.03125l.140625.011719h.035156l.132812.011719h.050782l.117187.011719.054688.003906.113281.003906.0625.003906.113281.007813.054688.003906c.035156.003906.078125.007813.117187.007813l.054688.003906.121094.007812.046874.003906.140626.007813.027343.003906.34375.019531.042969.003907.128906.007812h.046875c.039063.003907.082031.007813.117188.007813l.066406.003906c.035156.003906.070313.003906.105469.007812l.0625.003907.109375.003906.0625.003906.109375.007813.058594.003906.109374.003906.0625.003906.117188.007813.050781.003906.144531.007813h.027344c.117188.007812.222656.011718.339844.019531l.058594.003906.109375.003907.066406.003906.101563.003906.070312.003906.101562.007813.070313.003906.097656.003906.074219.003907.097656.003906.070313.003906.101562.003906.066407.003906.117187.003907.050781.003906.148438.007813h.019531c.121094.007812.230469.011718.347656.015624l.035157.003907.132812.003906.054688.003906.113281.003907.0625.003906.109375.003906.0625.003906.105468.003906.066407.003907.105469.003906.066406.003906.105468.003907.066407.003906.121093.003906h.042969c.0625.003906.109375.007812.167969.007812h.003906c.058594.003907.117188.007813.175782.007813h.023437l.144531.007813h.058594c.035156.003906.074219.003906.113281.003906l.058594.003906c.039063 0 .074219.003906.109375.003906l.066406.003906.105469.003907h.066406c.03125.003906.074219.003906.105469.003906l.066406.003906c.035156 0 .074219 0 .109375.003907h.058594l.113281.003906.058594.003906.117188.003906h.054687c.050781 0 .089844.003906.140625.003906l.03125.003907.167969.003906h.050781l.121094.003906.0625.003907h.105468l.070313.003906.101563.003906h.070312l.097656.003906h.074219l.097656.003906.074219.003907h.097656l.074219.003906.097656.003906h.074219l.105469.003907h.0625l.15625.003906h.011719l.175781.003906h.019531c.046875.003906.101562.003906.148438.003906h.058593l.113281.003906h.066407l.101562.003907h.074219l.097656.003906h.074219l.09375.003906h.171875l.074219.003907h.171875c.035156.003906.070312.003906.109375.003906h.0625l.140625.003906h.027344c.058593 0 .109374 0 .167968.003906h.171875l.070313.003906h.269531l.082031.003907h.164063l.101562.003906h.242188l.101562.003906h.242188c.050781 0 .09375.003907.144531.003907h.027344.167968.242188l.101562.003906h.589844l.097656.003906h.585938c122.105469 0 221.089844-98.988281 221.089844-221.089844v-.246094c0-.046874 0-.089843 0-.136718v-.074219c0-.039063 0-.074219 0-.113281v-.078125c0-.035157 0-.074219 0-.113281v-.1875l-.003906-.082032v-.191406c0-.039062 0-.078125 0-.117188v-.199218l-.003907-.0625c0-.125 0-.253906 0-.378906l-.003906-.058594v-.203125c0-.039063 0-.074219 0-.117188l-.003906-.078125c0-.035156 0-.074218 0-.113281v-.078125l-.003907-.113281v-.265625l-.003906-.117188v-.074218l-.003906-.136719v-.050781l-.003906-.191407v-.1875l-.003906-.054687c0-.046875 0-.089844 0-.136719l-.003907-.066406v-.121094l-.003906-.070313v-.121093l-.003906-.074219v-.1875c-.003907-.042969-.003907-.078125-.003907-.117188v-.074218l-.003906-.125-.003906-.0625v-.148438l-.003906-.042968-.003906-.191407v-.015625l-.003907-.171875v-.050781l-.003906-.140625-.003906-.0625v-.125l-.003907-.074219-.003906-.113281v-.078125l-.003906-.109375-.003906-.082031v-.113282l-.003906-.074218-.003907-.117188v-.070312l-.003906-.144532-.003906-.042968-.003907-.191406v-.03125l-.007812-.15625v-.070313l-.003906-.117187-.003906-.078126-.003907-.109374-.003906-.082032-.003906-.105468c0-.03125 0-.054688 0-.085938-.003907-.035156-.003907-.066406-.003907-.105469l-.003906-.082031c0-.035156-.003906-.070312-.003906-.109375l-.003906-.078125-.003906-.121094-.003907-.0625-.003906-.152344-.003906-.039062-.003907-.1875-.003906-.042969c0-.050781-.003906-.09375-.003906-.144531l-.003906-.070312c0-.035157-.003906-.078126-.003906-.117188l-.003907-.078125-.003906-.109375-.003906-.082031-.003907-.105469-.003906-.082031-.003906-.105469-.003906-.082031-.007813-.113281v-.074219l-.007812-.117188v-.070312l-.007813-.148438-.003906-.039062c0-.066407-.003906-.121094-.007812-.1875v-.042969l-.007813-.144531-.003906-.070313-.003907-.117187-.003906-.078125-.007812-.109375-.003906-.074219-.003907-.117188-.003906-.074218-.007813-.113282-.003906-.074218-.003906-.113282-.003906-.078124-.007813-.121094-.003906-.0625-.007813-.140625v-.050781c-.003906-.0625-.007812-.121094-.011718-.183594l-.003906-.074219c-.003907-.039063-.003907-.074219-.007813-.109375l-.003906-.082031c0-.039063-.003907-.074219-.003907-.109375l-.007812-.082032-.003906-.105468-.003906-.082032-.007813-.105468-.003906-.082032-.007813-.105468-.003906-.082032-.007812-.109374-.003907-.078126-.007812-.117187-.003907-.070313-.007812-.152343-.003906-.03125-.011719-.1875v-.054688l-.011719-.132812-.003906-.070313c-.003906-.039062-.003906-.074218-.007812-.117187l-.003907-.078125-.007812-.105469-.003907-.082031-.007812-.105469-.003906-.082031-.007813-.109375-.003906-.078125c-.003906-.035156-.007813-.074219-.007813-.109375l-.007812-.078125-.007812-.125-.003907-.058594c-.003906-.046875-.007812-.097656-.007812-.140625-.003907-.03125-.003907-.058594-.007813-.085937l-.011718-.148438-.003907-.0625-.007812-.121094-.003907-.078125-.007812-.109375-.007812-.078125c-.003907-.039062-.003907-.070312-.007813-.105469l-.003906-.085937-.007813-.101563-.007812-.082031-.007813-.105469-.007812-.082031-.007813-.109375-.003906-.078125-.007812-.109375-.007813-.078125c-.003906-.046875-.007813-.09375-.011719-.144531l-.003906-.078125c-.003906-.046875-.007812-.097656-.011719-.140625l-.007812-.082031c0-.03125-.003907-.074219-.007813-.105469l-.007812-.082031-.007813-.101563-.007812-.089844-.007813-.097656-.003906-.085937-.011719-.101563-.003906-.085937-.011719-.097657-.003906-.085937-.011719-.097656c0-.03125-.003906-.0625-.003906-.089844l-.011719-.105469-.003906-.078125c-.003906-.050781-.011719-.109375-.015625-.164062l-.003906-.070313-.011719-.132812-.007812-.078125-.007813-.105469-.007813-.082031-.011718-.105469-.003906-.082031-.011719-.101563-.007813-.085937-.007812-.097657-.007813-.089843-.007812-.097657-.007813-.085937-.011718-.101563-.007813-.085937-.007813-.101563-.007812-.082031c-.007812-.0625-.011719-.121093-.019531-.179687l-.003907-.054688-.011718-.132812-.007813-.074219c-.003906-.035156-.007812-.070313-.011719-.109375l-.007812-.082031-.007812-.101563-.007813-.085937-.011719-.101563-.007812-.082031-.007813-.101563-.011719-.085937-.007812-.101563-.007812-.082031c-.003907-.035156-.007813-.074219-.011719-.109375l-.007813-.074218-.015625-.144532v-.035156c-.007812-.066406-.015625-.121094-.019531-.1875l-.007812-.046875-.011719-.136719-.007813-.070312-.011718-.113282-.007813-.078124-.011719-.109376-.007812-.082031-.011719-.097656-.007813-.089844c-.003906-.03125-.007812-.066406-.011718-.097656l-.007813-.082031c-.003906-.03125-.007812-.074219-.011719-.105469l-.007812-.078125-.011719-.113281-.007812-.074219-.011719-.113281-.011719-.070313c-.003906-.058594-.011719-.125-.015625-.179687l-.007812-.074219-.015625-.109375-.007813-.089844-.011718-.09375c-.003907-.027343-.007813-.0625-.011719-.09375l-.007813-.085937-.011718-.097656-.011719-.089844-.007813-.089844-.023437-.1875-.007813-.089844-.011718-.089844-.011719-.09375c-.003907-.035156-.007813-.054687-.011719-.09375l-.011719-.105468-.007812-.074219c-.007813-.054687-.015625-.121094-.019531-.175781l-.011719-.082032-.011719-.105468-.011719-.082032-.011719-.097656c0-.03125-.003906-.058594-.007812-.089844l-.011719-.097656-.011719-.082031-.011718-.101563-.011719-.085937-.011719-.097656-.011718-.085938c-.003907-.03125-.007813-.066406-.011719-.097656l-.007813-.085937-.015625-.105469-.007812-.074219-.015625-.128906-.007813-.054688c-.007812-.0625-.015625-.121094-.023437-.179687l-.007813-.066407c-.003906-.039062-.007812-.078124-.015625-.117187l-.007812-.082031-.015625-.101563-.011719-.082031-.011719-.101562-.011719-.085938-.011718-.097656-.011719-.082032-.011719-.097656-.011718-.089844c-.003907-.03125-.007813-.0625-.011719-.09375l-.011719-.085937c-.003906-.03125-.007812-.070313-.011719-.101563l-.011719-.085937-.015624-.113281-.011719-.066406-.023438-.175782-.011719-.09375-.046874-.359375-.015626-.09375-.011718-.09375-.011719-.085937-.011719-.09375-.015625-.089844-.023437-.1875-.011719-.085938-.015625-.097656-.023438-.179687c-.007812-.058594-.015624-.105469-.023437-.164063l-.015625-.097656-.011719-.089844-.011719-.09375-.015624-.09375-.011719-.085937-.015625-.09375-.023438-.179688-.015625-.09375-.011719-.085937-.015624-.101563-.011719-.085937-.011719-.09375-.015625-.085938-.011719-.09375-.015625-.089844-.050781-.355468-.011719-.078125-.015625-.105469-.011718-.082031-.015626-.097657-.015624-.082031-.015626-.105469-.011718-.078124-.015625-.101563-.011719-.082031-.015625-.097656-.011719-.085938-.015625-.089844-.011719-.09375-.015624-.085937-.015626-.097657-.011718-.074218c-.007813-.066406-.015625-.113282-.027344-.179688l-.015625-.097656-.015625-.085938-.011719-.09375c-.007812-.027343-.011719-.070312-.015625-.097656l-.015625-.082031c-.003906-.035156-.007812-.0625-.015625-.097656l-.011718-.082031-.015626-.097657-.011718-.082031-.015625-.097656-.015625-.085938-.015625-.097656-.011719-.078125-.015625-.097656-.03125-.179688c-.007813-.046875-.015625-.09375-.023437-.136719l-.019532-.121093-.015625-.09375-.015625-.101563-.015625-.082031-.015625-.097656-.011718-.078125-.019532-.101563-.011718-.082031-.015626-.097656-.015624-.078125-.015626-.101563-.015624-.078125c-.003907-.035156-.011719-.066406-.015626-.101562l-.015624-.082031c-.003907-.027344-.011719-.066407-.015626-.09375l-.015624-.09375-.015626-.089844-.011718-.074219c-.011719-.070313-.023438-.132813-.035156-.203125l-.011719-.070312-.019531-.101563-.011719-.078125-.019531-.101562-.015626-.078126-.015624-.097656-.015626-.082031-.015624-.097656-.015626-.085938-.015624-.089843c-.007813-.03125-.011719-.058594-.015626-.089844l-.019531-.09375-.011719-.082032-.035156-.175781-.015625-.101562-.011719-.058594-.039062-.210937-.011719-.078126-.019531-.101562-.035156-.175781-.011719-.078125-.019531-.101563-.015625-.082031c-.003907-.027344-.011719-.066406-.015625-.09375l-.015625-.085938-.019531-.09375-.015626-.085937-.019531-.09375-.011719-.082031-.019531-.097656-.015625-.082032-.019531-.097656c-.011719-.054688-.019531-.113281-.03125-.167969l-.015625-.085937-.019531-.09375-.015625-.089844-.019532-.089844c-.003906-.027344-.011718-.066406-.015624-.09375-.007813-.027344-.011719-.054687-.015626-.082031l-.019531-.097656-.015625-.082031-.019531-.097657-.015625-.082031-.019531-.09375-.015625-.082031-.054688-.273438-.011718-.074219-.054688-.273437-.023438-.121094-.011718-.054687-.023438-.113282-.011718-.066406c-.007813-.035156-.015626-.070312-.023438-.101562l-.011719-.078125-.023437-.097657-.015625-.082031-.035157-.175781c-.007812-.035156-.011718-.0625-.019531-.097656l-.015625-.085938-.019531-.089844-.019531-.09375-.015625-.082031-.023438-.109375-.019531-.09375c-.007812-.050781-.019531-.101562-.03125-.148437l-.035156-.175781-.019532-.09375-.015624-.085938-.023438-.097656-.035156-.175782-.015625-.082031-.023438-.097656-.015625-.078125-.019531-.09375-.019531-.085938-.019532-.097656-.039062-.175781-.007812-.042969-.0625-.296875v-.003906l-.027344-.121094-.011719-.050781-.023437-.113281-.015626-.066407-.023437-.109374-.011719-.066407-.023437-.105469-.015625-.074218-.023438-.101563-.039062-.175781-.015625-.066406-.023438-.113282-.011719-.046874-.027343-.128907v-.007812c-.035157-.15625-.070313-.304688-.101563-.457031l-.011718-.046876c-.007813-.042968-.015626-.074218-.027344-.113281l-.011719-.066406-.027344-.109375-.011719-.0625-.027343-.109375-.011719-.066406c-.007812-.035157-.019531-.078125-.027344-.113281l-.011718-.054688-.027344-.121094-.011719-.050781-.027344-.125-.007812-.035156c-.011719-.050781-.023438-.089844-.035157-.136719v-.003906c-.023437-.105469-.046874-.207032-.070312-.3125l-.003906-.019532-.03125-.128906-.011719-.046875-.027344-.113281-.011719-.0625-.027343-.113281-.015625-.0625-.023438-.109375-.015625-.0625c-.007812-.035156-.019531-.082032-.027343-.117188l-.011719-.050781-.027344-.121094-.015625-.050781c-.007812-.042969-.019531-.082031-.027344-.125l-.011718-.042969c-.046876-.203125-.09375-.40625-.144532-.609375l-.003906-.023437c-.011719-.042969-.023438-.082031-.03125-.125l-.011719-.054688-.03125-.117187-.011719-.054688c-.011718-.042968-.019531-.074218-.027343-.117187l-.015625-.054688c-.007813-.042969-.015625-.078125-.027344-.121093l-.011719-.050782-.03125-.117187-.015625-.0625-.023437-.113281-.015625-.050782c-.035156-.144531-.066406-.28125-.101563-.425781l-.011719-.03125-.027343-.117187-.011719-.054688-.046875-.175781-.027344-.113281-.015625-.058594-.027344-.113282-.015624-.0625c-.007813-.035156-.019532-.074218-.027344-.109374l-.015625-.0625-.027344-.113282-.015625-.058594-.027344-.113281-.011718-.046875c-.039063-.148437-.074219-.296875-.113282-.441406l-.003906-.019531-.03125-.121094-.015625-.050781-.027344-.113282-.015625-.0625-.03125-.113281-.011718-.058593-.03125-.109376-.015626-.0625-.03125-.113281-.011718-.054687c-.011719-.035156-.023438-.082032-.03125-.117188l-.015625-.054687c-.007813-.042969-.019531-.078125-.03125-.121094l-.003907-.027344c-.039062-.144531-.078124-.289062-.117187-.433593l-.007813-.042969c-.011718-.039063-.023437-.082031-.035156-.125l-.011718-.042969-.03125-.121094-.015626-.050781-.03125-.117187-.011718-.054688-.046875-.175781-.03125-.113281-.015625-.054688-.03125-.117188-.011719-.050781c-.011719-.042969-.023437-.078125-.035156-.121093l-.007813-.035157c-.042968-.152343-.085937-.308593-.125-.460937v-.003906l-.039062-.132813-.011719-.039063-.046875-.175781c-.007812-.03125-.019531-.078125-.03125-.113281l-.015625-.058594-.03125-.109375-.046875-.175781-.015625-.050781c-.007813-.035157-.023437-.082031-.03125-.117188l-.015625-.054687c-.054688-.195313-.113281-.402344-.167969-.601563l-.003906-.015625-.035156-.132812-.011719-.039063-.035156-.121093-.015625-.050782c-.011719-.039062-.019531-.074218-.03125-.117187l-.015625-.054688-.035156-.113281-.015626-.054688c-.007812-.035156-.023437-.085937-.03125-.121093l-.011718-.039063-.039063-.132812-.007812-.023438c-.070313-.257812-.144531-.515625-.222657-.773437l-.007812-.035157c-.011719-.039062-.023438-.082031-.035156-.121093l-.015625-.050781-.035157-.121094-.011718-.046875-.039063-.121094-.011719-.046875c-.011718-.042969-.023437-.082031-.035156-.125l-.011718-.042969c-.015626-.046875-.023438-.078125-.039063-.125l-.007813-.03125c-.0625-.203125-.117187-.398437-.179687-.601562l-.007813-.03125c-.011718-.042969-.027343-.085938-.039062-.125l-.011719-.046875-.035156-.117188-.015625-.050781c-.011719-.042969-.023438-.078125-.035156-.121094l-.015625-.046875c-.011719-.042968-.023438-.078125-.035157-.121094l-.015624-.046874-.039063-.125-.007813-.035157c-.015624-.046875-.027343-.085937-.042968-.136719l-.003906-.011718c-.0625-.210938-.128907-.421875-.191407-.632813l-.003906-.007812-.042969-.136719-.011718-.035156-.035157-.121094-.015625-.050781c-.011718-.042969-.023437-.074219-.035156-.117188l-.015625-.050781-.039063-.117188-.011718-.046874c-.015625-.042969-.027344-.082032-.039063-.125l-.011719-.042969c-.015624-.039063-.027343-.082031-.039062-.121094l-.015625-.042969c-.058594-.195312-.121094-.398437-.183594-.59375l-.007812-.023437-.042969-.132813-.011719-.035156-.039062-.128906-.011719-.039063-.054688-.164062-.039062-.128907-.011719-.039062c-.015625-.046875-.027343-.082031-.042969-.128906l-.007812-.03125c-.015625-.046875-.03125-.09375-.046875-.140625v-.003907c-.070313-.210937-.136719-.421874-.203125-.628906l-.003906-.015625-.046875-.136719-.007813-.03125-.042968-.125-.011719-.042968-.042969-.125-.011719-.042969-.039062-.125-.015625-.039063c-.015625-.046874-.027344-.082031-.042969-.128906l-.007813-.027344-.046874-.140624v-.007813c-.070313-.207031-.136719-.414063-.207032-.621094l-.003906-.019531-.050781-.144531-.003907-.019531-.046874-.136719-.007813-.03125-.046875-.128907-.011719-.035156-.042969-.132812-.011718-.03125-.042969-.136719-.007813-.019531c-.085937-.261719-.175781-.519532-.261718-.78125l-.003906-.007813-.046876-.136719-.011718-.03125-.042969-.128906-.015625-.039062-.042969-.125-.011719-.039063-.042968-.128906-.011719-.03125c-.015625-.046875-.03125-.089844-.046875-.136719l-.003906-.015625c-.089844-.261719-.183594-.527343-.273438-.785156v-.003906l-.050781-.144531-.007813-.019532c-.015624-.046875-.03125-.089844-.046874-.136718l-.011719-.03125c-.015625-.039063-.03125-.09375-.046875-.132813l-.011719-.03125-.046875-.128906-.011719-.035157-.046875-.132812-.003906-.019531c-.089844-.253907-.183594-.515625-.273438-.769531l-.007812-.015626c-.015625-.046874-.03125-.085937-.046875-.132812l-.011719-.035156-.042968-.125-.015626-.039063-.046874-.125-.011719-.039062-.046875-.125-.011719-.035157-.046875-.132812-.007812-.015625c-.089844-.253906-.183594-.503906-.273438-.757813l-.011719-.03125-.046875-.128906-.015625-.035156-.046875-.128906-.011718-.035156-.046876-.125-.011718-.035157-.054688-.128906-.011718-.03125c-.015626-.046875-.035157-.089844-.050782-.136719-.097656-.257812-.195312-.523437-.289062-.78125l-.007813-.015625c-.015625-.042969-.035156-.089843-.050781-.136719l-.011719-.027343-.046875-.128907-.011718-.035156-.050782-.128906-.011718-.027344-.050782-.136718-.003906-.019532c-.117188-.300781-.238281-.617187-.351562-.917968l-.007813-.019532-.054687-.140625-.007813-.019531-.050781-.136719-.011719-.027343c-.015625-.039063-.035156-.09375-.050781-.132813l-.011719-.027344-.050781-.132812-.007813-.027344c-.117187-.300781-.238281-.605469-.355469-.90625l-.011718-.023437-.050782-.132813-.011718-.03125c-.015625-.039063-.03125-.085937-.046875-.125l-.015625-.039063-.050782-.125-.011718-.03125-.050782-.132812-.011718-.019531c-.117188-.300781-.242188-.613281-.363282-.914063l-.003906-.015625c-.019531-.046875-.039062-.097656-.058594-.140625l-.007812-.019531c-.019531-.050781-.035156-.085937-.054688-.140625l-.007812-.019531-.058594-.140625-.003906-.015625c-.023438-.050781-.039062-.089844-.058594-.140625l-.003906-.011719c-.128906-.3125-.25-.613281-.378906-.925781v-.003906l-.058594-.144532-.007812-.015625-.054688-.136719-.011719-.027343c-.019531-.046875-.039062-.089844-.058593-.132813l-.007813-.019531-.054687-.140625-.007813-.015625c-.125-.296875-.253906-.609375-.378906-.910156l-.007813-.015625c-.019531-.046875-.039062-.089844-.054687-.136719l-.011719-.023437-.054688-.128907-.011718-.03125-.054688-.128906-.011718-.027344c-.019532-.046875-.039063-.089843-.054688-.132812l-.011719-.023438c-.125-.296875-.253906-.601562-.382812-.898437l-.007813-.019532-.058594-.132812-.007812-.023438-.058594-.132812-.011718-.03125c-.019532-.042969-.039063-.085938-.058594-.128906l-.003906-.019532-.0625-.140624-.003907-.011719c-.113281-.253907-.21875-.503907-.332031-.761719l-.058594-.136719-.011718-.023437-.058594-.132813-.011719-.023437c-.015625-.039063-.039063-.097656-.058594-.136719l-.007812-.019531c-.019531-.046875-.039063-.09375-.058594-.136719l-.007813-.015625-.0625-.144531c-.136718-.308594-.269531-.605469-.40625-.910157l-.007812-.015624c-.019531-.046876-.039062-.09375-.0625-.140626l-.007812-.015624c-.019532-.046876-.039063-.089844-.058594-.136719l-.011719-.023438-.058594-.136719-.007812-.011718c-.160157-.355469-.316407-.699219-.476563-1.054688l-.003906-.011718c-.023438-.050782-.042969-.089844-.066406-.140626l-.003906-.011718c-.023438-.054688-.042969-.09375-.066407-.144532l-.003906-.007812c-.210937-.457031-.417969-.910156-.628906-1.363281l-.003907-.007813c-.023437-.050781-.042968-.09375-.070312-.144531v-.007813c-.191406-.40625-.378906-.804687-.570312-1.210937-.265626-.554687-.53125-1.109375-.796876-1.660156v-.003907c-.027343-.046874-.050781-.097656-.074218-.148437-.195313-.402344-.390625-.800781-.589844-1.203125v-.003906c-.027344-.046875-.050781-.097656-.074219-.144532v-.003906l-.074219-.148437v-.003907c-.199218-.398437-.398437-.796874-.597656-1.195312-.027344-.050781-.050781-.097656-.074218-.148438l-.003907-.003906c-.023437-.050781-.046875-.09375-.074219-.144531v-.003906c-.203124-.402344-.398437-.789063-.601562-1.183594l-.007812-.015625c-.253907-.496094-.507813-.984375-.765626-1.480469-.027343-.050781-.050781-.097656-.078124-.144531v-.003906c-.234376-.445313-.464844-.886719-.699219-1.328125l-.003907-.003907c-.023437-.050781-.050781-.097656-.078124-.144531v-.003906c-.234376-.441406-.472657-.882813-.710938-1.324219-.027344-.050781-.050781-.097656-.078125-.144531l-.003906-.003906c-.238281-.441407-.472657-.875-.714844-1.3125l-.007813-.007813c-.027343-.050781-.050781-.09375-.078124-.144531-1.050782-1.898437-2.125-3.78125-3.226563-5.648437l-.003906-.003907c-1.355469-2.296875-2.753907-4.566406-4.191407-6.804687v-.003906c-.660156-1.027344-1.328124-2.050782-2.003906-3.066407-.304687-.460937-.613281-.921875-.925781-1.378906v-.003906c-11.515625-17.039063-25.339844-32.398438-41.078125-45.640625-2.089844-1.753906-4.730469-2.714844-7.460938-2.710938zm0 0" fill="#db6600"/><path d="m396.136719 290.910156c0 96.398438-78.148438 174.542969-174.546875 174.542969-96.398438 0-174.542969-78.144531-174.542969-174.542969 0-96.398437 78.144531-174.546875 174.542969-174.546875 96.398437 0 174.546875 78.148438 174.546875 174.546875zm0 0" fill="#f2f9f6"/><path d="m221.589844 93.089844c-109.078125 0-197.816406 88.742187-197.816406 197.820312.066406 55.4375 23.328124 108.320313 64.152343 145.828125 4.738281 4.34375 12.097657 4.023438 16.441407-.710937 4.34375-4.738282 4.023437-12.097656-.710938-16.441406-17.890625-16.394532-32.175781-36.328126-41.949219-58.539063v-.003906c-.035156-.082031-.070312-.160157-.105469-.242188-.230468-.527343-.457031-1.054687-.683593-1.582031l-.003907-.003906-.046874-.113282-.003907-.011718-.046875-.109375-.007812-.015625-.042969-.105469-.007813-.019531c-.015624-.035156-.03125-.074219-.046874-.109375l-.003907-.011719-.046875-.109375-.003906-.011719c-.222656-.523437-.445312-1.058594-.660156-1.585937l-.003906-.003907-.046876-.113281-.003906-.015625c-.015625-.039062-.03125-.074218-.046875-.113281l-.003906-.007813-.046875-.113281-.003906-.011719-.046875-.113281v-.007812l-.050781-.117188v-.007812c-.199219-.488281-.394532-.980469-.589844-1.472657l-.003906-.007812c-.015626-.039062-.027344-.074219-.042969-.117188l-.003907-.003906-.046874-.117187-.003907-.007813-.042969-.117187-.003906-.011719-.042968-.109375-.007813-.015625c-.015625-.035156-.027344-.074219-.042969-.113281l-.003906-.007813-.046875-.117187v-.003907c-.03125-.082031-.0625-.164062-.09375-.246093l-.003906-.003907c-.175781-.453124-.351563-.910156-.523438-1.363281v-.003906l-.042969-.113281-.003906-.015625-.042968-.109375-.003907-.015625-.039062-.105469-.011719-.023438c-.011719-.035156-.023438-.070312-.039062-.105468l-.003907-.015625c-.015625-.039063-.027343-.070313-.042969-.109375l-.007812-.023438-.039062-.101562-.007813-.023438-.039063-.105468-.007812-.015626-.039062-.113281-.003907-.007812c-.015625-.039063-.027343-.078125-.042969-.117188l-.003906-.007812c-.136718-.375-.273437-.746094-.40625-1.121094l-.003906-.003906c-.011719-.039063-.027344-.078125-.042969-.113281l-.003906-.011719-.039063-.113281-.003906-.015626-.039062-.109374-.007813-.015626c-.015625-.039062-.027343-.074218-.039062-.113281l-.007813-.015625-.042968-.128906-.039063-.109375-.007813-.015625-.039062-.105469-.003906-.023437-.039063-.105469-.007812-.019531-.039063-.109375-.003906-.015625c-.03125-.082032-.058594-.160156-.085938-.238282v-.003906c-.117187-.335937-.230468-.664062-.347656-.996094l-.003906-.015624-.042969-.117188v-.007812l-.042969-.117188-.003906-.011719-.035156-.113281-.007812-.015625-.035157-.105469-.007812-.027344c-.011719-.035156-.023438-.066406-.035157-.101562l-.042968-.128906-.011719-.023438-.035156-.101562-.007813-.03125-.035156-.097656-.007812-.03125-.035157-.101563-.042969-.128906c-.144531-.421875-.28125-.839844-.421874-1.261719l-.003907-.011719-.035156-.113281-.007813-.019531-.042968-.128907c-.007813-.035156-.019532-.070312-.03125-.105468l-.007813-.023438c-.011719-.035156-.023437-.070312-.035156-.101562l-.007813-.03125-.035156-.101563-.042968-.128906-.003907-.023437-.035156-.109376-.007813-.015624-.035156-.109376-.007812-.023437-.035156-.109375v-.003906c-.09375-.292969-.1875-.582032-.28125-.878906l-.003907-.015626-.03125-.101562-.007812-.027344-.03125-.097656-.042969-.128906-.007812-.039063-.027344-.085937-.015625-.046875-.027344-.085938-.011719-.042969-.027344-.085937-.015624-.042969-.027344-.089844-.011719-.039062-.027344-.09375-.011719-.039062-.027343-.089844-.011719-.035156-.03125-.097657-.007812-.03125-.03125-.101562-.007813-.019531-.03125-.109376-.003906-.011718c-.078125-.253906-.152344-.507813-.230469-.761719l-.03125-.109375-.007812-.023438-.027344-.097656-.011719-.035156c-.011719-.03125-.019531-.0625-.027344-.09375l-.011719-.039062-.027343-.089844-.011719-.042969-.027344-.089844-.011718-.039062-.027344-.09375-.011719-.035157-.027344-.097656-.011719-.03125c-.007812-.03125-.019531-.066406-.027343-.097656l-.011719-.039062-.027344-.09375-.011718-.035157-.027344-.09375-.007813-.039062-.027343-.09375-.007813-.027344-.03125-.105469-.007813-.023437-.03125-.109375-.003906-.011719c-.058594-.203125-.117187-.410156-.175781-.617187l-.007813-.019532-.03125-.113281-.003906-.015625-.03125-.109375-.007812-.023437c-.007813-.035157-.019532-.070313-.027344-.101563l-.007812-.03125-.027344-.09375-.011719-.042969-.027344-.09375-.007812-.035156-.027344-.097656-.011719-.035156-.023437-.09375-.011719-.039063-.027344-.089844-.011718-.042969-.023438-.09375-.011719-.035156-.027343-.097656-.007813-.03125-.027344-.101562-.007812-.027344-.027344-.105469-.007813-.023437-.03125-.109376v-.011718c-.070312-.253906-.140624-.507813-.207031-.761719l-.003906-.007813-.027344-.109374-.007812-.023438-.027344-.101562-.007813-.035157c-.011718-.03125-.019531-.0625-.027343-.097656l-.007813-.03125-.027344-.101563-.03125-.125-.015624-.046874-.023438-.085938-.011719-.046875-.019531-.082031-.015625-.050782-.023437-.085937-.007813-.042969-.023437-.089844-.015626-.046874-.019531-.089844-.011719-.039063-.023437-.089843-.011719-.042969-.03125-.125-.027344-.097657-.011718-.046874-.023438-.089844-.003906-.027344c-.054688-.203125-.101562-.398438-.15625-.605469l-.007812-.027343-.027344-.109376-.003906-.023437-.023438-.097656-.011719-.039063-.023437-.097656-.007813-.03125-.027343-.101562-.007813-.035157-.023437-.097656-.007813-.03125-.023437-.097656-.011719-.039063-.023438-.097656-.007812-.035156-.023438-.097656-.011719-.035157-.023437-.097656-.007813-.035156-.023437-.097657-.007813-.039062-.023437-.09375-.007813-.035156-.023437-.101563-.007813-.03125c-.011718-.035156-.019531-.066406-.027343-.101562l-.003907-.015625c-.050781-.210938-.101562-.429688-.152343-.640625v-.003907l-.027344-.117187-.003906-.015625-.027344-.105469-.007813-.03125-.023437-.097656-.007813-.039063-.019531-.089843-.011719-.046875-.023437-.089844-.007813-.042969-.019531-.089843-.011719-.046876-.019531-.085937-.011719-.050781-.019531-.082032-.011719-.050781-.019531-.085937-.011719-.046875-.019531-.085938-.011719-.046875-.019531-.09375-.011719-.039062-.019531-.09375-.007812-.039063-.023438-.097656-.007812-.027344-.023438-.105469-.003906-.023437c-.046875-.207031-.09375-.417969-.140625-.625l-.003906-.019531-.019532-.09375-.011718-.042969-.019532-.09375-.007812-.039063-.019531-.09375-.011719-.046874-.019531-.085938-.011719-.046875c-.003906-.03125-.011719-.054687-.015625-.085937l-.011719-.050782-.019531-.085937-.011719-.046875-.019531-.089844-.007813-.046875-.019531-.085937-.011719-.050782-.015624-.085937-.011719-.050781-.019531-.085938-.007813-.046875-.019531-.089844-.011719-.046875-.019531-.085937-.007813-.050781-.019531-.085938-.011719-.050781-.019531-.085938-.003906-.019531c-.03125-.160156-.0625-.316406-.097656-.472656l-.007813-.046875-.027344-.136719-.015625-.074219-.015625-.0625-.011719-.066406-.015624-.074219-.015626-.070312-.011718-.0625-.015625-.078125-.011719-.054688-.015625-.085937-.011719-.054688-.015625-.074218-.011719-.066407-.015624-.074219-.082032-.410156-.011718-.0625-.015626-.074218-.027343-.136719-.007813-.050781-.019531-.089844-.007813-.046875-.015624-.085938-.011719-.050781c-.023438-.117188-.042969-.234375-.066407-.347656v-.007813l-.019531-.089843-.007812-.050782-.015625-.082031-.011719-.050781-.015625-.085938-.007812-.050781c-.007813-.03125-.011719-.0625-.019532-.09375l-.007812-.039063-.015625-.09375-.011719-.046874-.015625-.085938-.011719-.054688-.011718-.078124-.011719-.058594-.015625-.082032-.011719-.054687-.011719-.078125-.011718-.0625-.015626-.074219-.011718-.058593-.011719-.082032-.011719-.054687-.015625-.082031-.007812-.050782-.015625-.085937-.011719-.054688-.015625-.082031-.007812-.058594-.015626-.078125-.011718-.066406-.011719-.074219-.011719-.066406-.023437-.117188-.015625-.085937-.015625-.089844-.007813-.046875-.015625-.082031-.007812-.058594-.015625-.078125-.007813-.058594-.015625-.082031-.007812-.054687-.015625-.078125-.011719-.0625-.011719-.070313-.011719-.074218-.011718-.0625-.011719-.074219-.011719-.070313-.011718-.066406-.011719-.070312-.011719-.066407-.035156-.210937-.011719-.0625-.011719-.078125-.011718-.0625-.011719-.074219-.011719-.0625-.011719-.074219-.011719-.070312-.011718-.066407-.023438-.140624-.007812-.058594-.015625-.082032-.003907-.023437c-.011718-.074219-.023437-.15625-.035156-.230469l-.003906-.019531-.019531-.117187-.003907-.015626c-.003906-.035156-.007812-.066406-.011718-.097656l-.023438-.128906-.007812-.054688-.011719-.078124-.011719-.0625-.011718-.074219-.007813-.0625-.011719-.074219-.011718-.066406-.011719-.074219-.007813-.0625-.011718-.078125-.011719-.066406-.011719-.070313-.011719-.0625-.011719-.078125-.007812-.066406-.011719-.070312-.011719-.066407-.007812-.070312-.011719-.074219-.011719-.066406-.007812-.066406-.011719-.078126-.011719-.0625-.011718-.074218-.007813-.0625-.011719-.078125-.007812-.046875c-.015625-.113282-.03125-.226563-.046875-.339844l-.003906-.023438-.011719-.078124-.011719-.0625-.007812-.070313-.011719-.070313-.011719-.074218-.007812-.0625-.011719-.082032-.007812-.058593-.011719-.078125-.007813-.0625-.011718-.078125-.007813-.058594-.011719-.082031-.007812-.058594-.011719-.082031-.007813-.058594-.011718-.074219-.011719-.070312-.007813-.070313-.007812-.066406-.011719-.074219-.007812-.0625-.019531-.136718-.011719-.078126-.007813-.0625-.011718-.082031-.007813-.046875-.011719-.089844-.003906-.039062c-.019531-.152344-.042969-.3125-.0625-.464844l-.007812-.050781-.019532-.136719-.007812-.082031-.007813-.0625-.011719-.078125-.007812-.058594-.007812-.078125-.011719-.066406-.007813-.074219-.007812-.0625-.011719-.074218-.015625-.140626-.007812-.066406-.011719-.078125-.007813-.0625-.007812-.078125-.007813-.058594-.011719-.082031-.007812-.0625-.007812-.078125-.007813-.058594-.007813-.082031-.007812-.058593-.019531-.136719-.007813-.085938-.007812-.050781-.011719-.089844-.003906-.035156c-.015625-.121094-.027344-.238281-.042969-.355469v-.023437l-.011719-.09375-.003906-.046875-.011719-.082031-.007812-.058594-.007813-.078125-.007812-.0625-.007813-.074219-.007812-.066406-.007813-.078125-.007812-.0625-.011719-.078125-.003906-.0625-.011719-.078125-.003906-.0625-.011719-.074219-.003906-.070312-.011719-.074219-.007813-.0625-.007812-.078125-.003906-.066406-.011719-.074219-.003906-.066407-.015625-.140624-.007813-.074219-.007812-.0625-.007813-.078125-.007812-.066406-.015625-.148438-.007813-.066406-.007812-.085938-.007813-.054687-.011719-.140625-.003906-.023438-.011718-.117187-.003907-.050781-.011719-.09375-.003906-.054688-.007812-.085938-.007813-.066406-.007812-.074218-.007813-.066407-.007812-.074219-.003906-.0625-.007813-.082031-.007813-.066406-.007812-.074219-.007812-.066406-.003907-.078125-.007812-.0625-.007813-.078125-.003906-.0625-.007812-.082031-.007813-.0625-.007813-.074219-.003906-.070312-.007812-.074219-.007813-.066407-.007812-.078124-.003907-.0625-.007812-.082032-.003906-.058594-.007813-.082031-.007812-.0625-.011719-.140625c-.007812-.09375-.015625-.191406-.023438-.285156l-.003906-.046875-.011718-.09375-.003907-.058594-.007812-.082031-.003907-.0625-.007812-.082031-.003906-.058594-.007813-.085937-.003906-.058594-.007813-.082032-.007812-.066406-.003906-.078125-.003906-.058593-.007813-.082032-.007813-.066406-.003906-.074219-.007812-.066406-.003906-.074219-.007813-.074218-.003906-.066407-.003907-.070312-.007812-.078125-.003906-.0625-.007813-.085938-.003906-.054687-.007813-.089844-.003906-.054687-.011718-.140626-.007813-.101562v-.046875l-.007813-.097656-.003906-.042969c-.003906-.046875-.007812-.097656-.011718-.144531v-.027344l-.011719-.117187v-.035157l-.007813-.105469-.003906-.054687-.007812-.085937-.003907-.0625-.003906-.078126-.007813-.066406-.003906-.082031-.003906-.058594-.003906-.082031-.007813-.066406-.003906-.074219-.007813-.140625-.007812-.074219-.007812-.140625-.007813-.070312-.003906-.074219-.007813-.140625-.003906-.078125-.007812-.0625-.003907-.085937-.003906-.058594-.003906-.082032-.003907-.0625-.007812-.078124-.003906-.066407-.003906-.074219-.003907-.066406-.003906-.085937-.011719-.175781-.003906-.105469-.003906-.058594-.003906-.074219-.003907-.070312-.007812-.074219v-.066406l-.007813-.074219-.003906-.070312v-.074219l-.003906-.070313-.003906-.074218-.003907-.066407-.007812-.148437-.003907-.066406-.003906-.078126-.003906-.0625c-.003906-.03125-.003906-.054687-.003906-.085937l-.003906-.058594-.003907-.082031-.003906-.066406-.003906-.074219-.003907-.066406-.003906-.078125v-.066406l-.003906-.082032-.003906-.0625-.007813-.148437-.003906-.0625-.003906-.078125v-.066406l-.003907-.078126-.003906-.101562-.003906-.039062c0-.046876-.003906-.09375-.003906-.140626l-.003906-.074218-.003907-.070313-.003906-.074219v-.070312l-.003906-.074219-.003907-.070312-.003906-.082031v-.054688l-.003906-.085938-.003906-.0625-.003906-.078124v-.066407l-.003907-.070312-.003906-.078125-.003906-.070313v-.066406l-.003907-.078125-.003906-.070312v-.070313l-.003906-.074219-.003906-.070312v-.074219l-.007813-.140625v-.074219l-.003906-.070312-.003906-.074219v-.074219l-.003907-.066406v-.078125l-.003906-.070312-.003906-.0625v-.09375l-.007812-.199219v-.074219l-.003907-.078125v-.0625l-.003906-.082031v-.0625l-.003906-.078125v-.066407l-.003907-.070312v-.078125l-.003906-.066406v-.078125l-.003906-.066406v-.148438l-.003906-.074219v-.066406l-.003906-.078125v-.144531l-.003907-.070313v-.144531l-.003906-.074219v-.144531l-.003906-.070313v-.144531l-.003907-.070312v-.148438l-.003906-.070312v-.074219l-.003906-.152344v-.128906l-.003906-.074219v-.214843l-.003906-.078126v-.214843l-.003907-.070313v-.21875l-.003906-.078125v-.355469l-.003906-.082031v-1.082031c0-96.398438 78.144531-174.542969 174.542969-174.542969h.855468c.042969 0 .085938 0 .132813.003907h.449219l.082031.003906h.183593c.089844 0 .175782.003906.269532.003906h.128906l.050781.003906h.214844l.054687.003906h.132813l.097656.003907h.191407l.109374.003906h.132813l.046875.003906h.136719l.082031.003907h.140625l.042969.003906h.121094.007812c.046875.003906.09375.003906.136719.003906h.023437l.109375.003906h.042969l.085938.003906h.050781l.082031.003907h.136719l.050781.003906h.082031l.050781.003906h.128907l.015625.003907h.117187l.042969.003906h.09375l.042969.003906h.085937l.050782.003906h.085937l.046875.003906h.089844l.042968.003907.109376.003906h.023437c.042969 0 .089844 0 .132813.003906h.03125l.101562.003907h.039062l.09375.003906h.046876l.085937.003906h.046875l.085938.003906.046874.003906.105469.003907h.027344c.089844.003906.175781.003906.265625.007812l.035156.003907.097656.003906h.046876l.089843.003906h.039063l.09375.003906.042968.003906.097657.003907h.03125l.128906.003906h.003906l.140625.007813h.007813l.125.003906.03125.003906.097656.003906h.039063l.097656.003906.042968.003907c.03125 0 .058594 0 .089844.003906h.039063l.097656.003906.039063.003907.261718.011718h.042969l.089844.003906.046875.003907.085937.003906.046875.003906.089844.003907.046875.003906.078125.003906h.054688l.082031.003906.050781.003906c.042969.003907.085938.003907.128906.007813h.023438l.105468.007813h.046876l.082031.003906.054687.003906.082032.003906.046874.003906.085938.003907.050781.003906.085938.003906.042969.003907.109374.003906.023438.003906.132812.007812h.03125l.09375.007813h.054688l.078125.007813h.054687l.082032.007812h.046875l.085937.007812.046875.003907.089844.003906h.042969c.042968.003906.085937.007813.128906.011719h.023438l.109374.007812h.042969l.089844.007813.042969.003906.089844.003906.042968.003907.09375.007812h.035156l.105469.007812h.03125l.125.011719h.003907l.136718.007813h.023438l.105468.007812.128907.011719h.050781l.128906.011719.09375.003906.039063.003906.097656.007813.035156.003906.128907.007813.023437.003906.109375.007812h.042969l.089843.007813.046876.003906.082031.007813.050781.003906.078125.003906.054687.003906.128907.011719.113281.007813h.015625l.132813.011718h.023437c.035156.003906.074219.007813.105469.011719h.042968l.089844.007813.046875.003906.082031.007812.050782.003906.128906.011719.101562.007813h.03125l.265626.023437.027343.003907.101563.007812.039062.003906.09375.007813.039063.003906.09375.007813h.039062l.097657.011718h.035156l.128906.011719.132812.011719.027344.003906.105469.007812.039063.003907.09375.007812.039062.003907.089844.007812.046875.003906.082031.007813.050781.007812.089844.007813.039063.003906.261718.023438.03125.003906.097656.007812.046876.003906.082031.007813.046875.003906c.03125.003907.058594.007813.089844.007813l.042968.007812.09375.007813.035156.003906.109376.007813.023437.003906.261719.027344h.035156l.09375.011718.046875.003906.078125.007813.054688.007813.082031.007812.046875.003906.089844.007813.039062.003906.121094.011719.007812.003906.132813.011719.027343.003906c.035157.003906.066407.007813.101563.011719l.128906.011718.046875.007813.089844.007813.039062.003906.089844.011718.042969.003907.105469.011719h.023437c.089844.011718.179688.019531.265625.03125h.015625l.113281.011718.035157.003906.097656.011719.035156.003907c.03125.003906.0625.007812.097657.011718l.035156.003906.101562.011719.027344.003907.121094.011718.011718.003906.132813.015626h.011719l.121094.015624h.023437l.109375.011719.027344.003907.101562.011718.035156.003906.105469.015626h.023438l.121093.015624h.007813l.269531.03125.019532.003907.113281.015625h.023437l.105469.015625.035156.003906c.03125.003906.066407.007813.097657.011719l.03125.003906.105468.011719.027344.003906c.085938.011719.175781.019531.265625.03125l.003906.003906.125.015625.027344.003906.097656.011719.042969.003907.089844.011718.039062.003906.09375.011719.039063.007813.109375.011718.015625.003907c.089843.011719.179687.023437.269531.035156h.007812l.121094.015625.023438.003906.109375.015625h.027343c.03125.007813.0625.011719.097657.015625l.035156.003906.113281.015626.015625.003906c.132813.015625.265625.035156.398438.050781l.023437.003906.105469.015625.027344.003906.101562.011719.035157.007813.09375.011718.039062.003907.09375.015625.039062.003906.257813.035156.019531.003906.113282.015626.023437.003906.105469.015625.03125.003906.101562.015625.03125.003906.101563.015625.03125.003907.109375.015624.019531.003907c.042969.003906.085937.011719.132813.019531l.128906.015625.027344.003906.101562.015625.035156.007813.097656.011719.03125.007812.097657.011719.035156.007812.101563.015625.027343.003906c.085938.011719.175781.027344.261719.039063l.019531.003906.105469.015625.042969.007813.089843.011719.035157.003906.097656.015625.03125.007812.105469.015625.023437.003906.117188.015626.015625.003906.265625.039062.015625.003906c.035156.007813.070312.011719.109375.019532l.035156.003906.09375.015625.039063.003906.09375.015625.03125.007813c.035156.003906.070312.011719.105468.015625l.023438.003906c.089844.015625.175781.027344.265625.042969h.003906l.125.019531.019531.003906.105469.019532.039063.003906.089843.015625.039063.007812c.03125.003907.066406.011719.097656.015625l.03125.003906.109375.019532.019531.003906c.085938.011719.171875.027344.261719.042969l.015625.003906c.039062.003906.074219.011719.113281.015625l.03125.007812c.03125.003907.066407.011719.097657.015626l.03125.003906.097656.019531.035156.003906.105469.019531.019531.003907.121094.019531h.011718l.261719.046875.019531.003906.109376.019531.027343.003907.097657.019531.035156.003906.101562.019532.027344.003906c.128906.023437.257812.046875.390625.070312h.011719l.117187.019532.023438.007812.105469.015625.027343.007813.101563.019531.027344.003906.109374.019531.023438.003906c.128906.023438.257812.046876.390625.070313l.019531.003906c.035156.007813.070313.011719.105469.019531l.03125.007813.101563.019531.027343.003906.101563.019532.027344.003906.117187.023438h.011719c.128906.023437.257812.050781.386718.074218l.035157.003906.09375.019532.035156.007812.09375.015625.039063.007813c.03125.007812.0625.011718.09375.019531l.03125.003906.117187.023438.007813.003906c.085937.015625.171874.03125.257812.050781l.03125.003906.097656.019532.03125.003906.101563.019531.027343.007813.101563.019531.03125.003906.101563.023438.027343.003906c.125.023437.257813.050781.386719.078125l.023438.003906.101562.019532.035156.007812.09375.019531.03125.007813.101563.019531.027343.003906.113282.023438.011718.003906.261719.054687h.019531l.140626.03125.09375.019532.035156.007812.09375.019532.03125.007812.109375.019531.015625.003907.390625.082031.019531.003906.105469.023437.027343.007813.101563.019531.03125.007813c.035156.007812.066406.011719.101563.019531l.023437.007812.109375.023438.019531.003906c.085938.019532.171875.035156.257813.054688l.015625.003906c.035156.007812.074219.015625.113281.023438l.023438.007812.101562.019531.035156.007813c.03125.007812.066406.015625.097656.023437l.023438.003907.109375.023437.019531.003906c.128906.027344.261719.058594.390625.085938l.003907.003906c.042968.007813.085937.015625.125.027344l.015624.003906.109376.023437.023437.003907.105469.023437.027344.007813c.039062.007812.078124.015625.121093.027343.132813.027344.257813.058594.390625.085938l.019532.007812.109374.023438.019532.003906c.035156.007813.070312.015625.105468.023438l.027344.007812.105469.023438.023437.003906.113282.027344.011718.003906.257813.058594.015625.003906.117188.027344.011718.003906.113282.023438.023437.007812.105469.023438.023437.003906.125.03125.261719.0625h.003906l.125.03125h.011719l.113281.027344.023438.007812.105468.023438.023438.007812.101562.023438.027344.003906c.039063.011718.078125.019531.121094.03125.089844.023437.171875.042968.261719.0625l.011719.003906.113281.027344.027343.007812c.03125.007813.070313.015625.101563.023438l.019531.007812.109375.023438.019531.007812.121094.027344.003906.003906c.128907.03125.261719.0625.390626.09375l.011718.003906.113282.03125.019531.003907c.035156.007812.070312.015625.105469.023437l.027343.007813.109375.027343.011719.003907.125.03125h.003906c.085938.023437.171875.042969.257813.066406l.011718.003906.113282.027344.023437.007813.101563.023437.03125.007813c.03125.007812.066406.019531.101562.027343l.019532.003907c.039062.011718.074218.019531.109374.027343l.019532.007813c.128906.03125.257812.066406.386718.097656l.003907.003906.117187.027344.023438.007812.105468.027344.019532.003906.113281.03125.011719.003907c.171875.042969.347656.089843.515625.132812l.007812.003907.117188.03125.015625.003906.109375.03125.019531.003906c.171875.046875.34375.089844.511719.136719l.007812.003906c.042969.011719.078125.019531.121094.03125l.011719.003906.113281.03125.015625.003907.113281.03125.015625.003906.121094.03125.003906.003906c.128906.035156.253906.070312.382813.105469l.019531.003906.101562.027344.03125.007812.097657.027344.023437.007813.109375.03125.015625.003906c.128906.035156.253906.070312.382813.109375h.007812l.117188.03125.019531.007812.101562.027344.03125.011719c.027344.007812.0625.015625.089844.023437l.035156.011719.101563.027344.019531.007812c.125.035156.253906.070313.375.105469l.027344.007813.097656.027343.027344.007813.101562.03125.023438.003906.109375.035156.011719.003906c.042968.011719.082031.019532.125.035157h.003906l.253906.074219h.003906l.121094.035156.019532.007812.101562.027344.027344.007812.105468.03125.019532.007813.105468.03125.019532.003906c.125.039063.246094.074219.375.113281l.023437.007813.097657.027344.03125.007812.097656.03125.023437.007813.101563.03125.027344.007812.117187.035156c.125.039063.253906.074219.378906.113282l.027344.007812.097656.03125.027344.007813.097656.027343.027344.011719.101563.03125.019531.003907c.125.039062.25.078124.375.117187l.019531.003906.101562.03125.03125.011719.089844.027344.039063.011718.089843.027344.027344.007813.105469.035156.015625.003906c.085938.027344.167969.054688.253906.078125l.003906.003906c.039063.011719.082032.023438.121094.039063h.007813l.113281.035156.019531.007813.105469.035156.023438.003906.101562.035156.019531.007813c.125.039063.25.078125.375.117187l.011719.003907.113281.035156.117188.039063.03125.011718.09375.027344.03125.011719.109375.035156.007812.003906c.128906.039063.25.078125.375.121094l.015625.003906.109375.035157.019532.007812.101562.03125.023438.007812.109374.039063.011719.003906c.128907.039063.25.078125.375.121094l.011719.003906.113281.039063.015625.003906c.035156.011719.070313.023438.105469.035156l.128906.042969.015625.007813.109375.035156.015625.003906c.125.042969.246094.082031.371094.125l.019531.007812c.035157.011719.066407.019532.097657.03125l.03125.011719.097656.03125.023437.011719.101563.03125.019531.007812c.039063.011719.074219.023438.113281.039063l.011719.003906c.082031.027344.164063.054688.246094.082031l.011719.003907.109374.039062.023438.007813.101562.035156.023438.007812c.03125.011719.0625.023438.097656.035157l.027344.007812.105469.039063h.011719c.125.042968.25.089844.371093.128906l.019531.007812.105469.035157.019531.007812.101563.035157.023437.007812.105469.039062.015625.003907c.035156.011719.070313.027343.105469.039062l.019531.007813c.082032.027344.164063.054687.246094.085937.042969.015625.078125.027344.121094.042969l.019531.007812c.03125.011719.066406.023438.101563.035157l.023437.007812.101563.035157.019531.007812.101562.035156.023438.007813c.121093.042969.242187.089843.367187.132812l.011719.003907.105469.039062.027344.007812.09375.035157.027343.011719.097657.035156.023437.007812c.121094.042969.242187.085938.367187.132813l.011719.003906.101563.039063.039062.015624.117188.039063.085937.035156.035157.011719.09375.035156.023437.007813.105469.039062.015625.003907c.082031.03125.164062.0625.242187.089843l.023438.011719.09375.035156.035156.011719.082031.03125.042969.015625.078125.027344.039063.015625.089843.035156.027344.007813c.078125.03125.160156.058593.238281.089843l.027344.011719c.03125.011719.0625.023438.089844.035156l.039062.011719.078125.03125.046875.015625.074219.027344.042969.019531.074218.027344.046876.015625c.027343.011718.058593.023437.085937.035156l.027344.011719.121093.042969.003907.003906.113281.042968.027344.011719.089844.03125.039062.015625.082031.03125.039063.015625c.023437.011719.054687.023438.078125.03125l.039062.015625.085938.03125.03125.011719c.035156.015625.074219.03125.109375.042969l.007812.003906.121094.046875.023438.007813.089843.035156.042969.019531.074219.027344.046875.019531.070312.027344.050782.019531.066406.027344.050781.015625.070313.03125.046874.015625.226563.089843.054687.023438.0625.023438.050782.019531.070312.027343.042969.019532.078125.027344.039062.019531.078126.027343.042968.019532.089844.035156.023438.007812.121093.050782.007813.003906.105468.039062.039063.015626.074219.03125.050781.019531.066406.027343.050781.019532.066407.027344.050781.019531.066406.027343.050782.019532.078124.03125.054688.023437.136719.054688.070312.03125.054688.019531.0625.027344.054687.019531.058594.027344.058594.023437.0625.023438.050781.023437.074219.027344.039062.019531.113282.046875.03125.011719c.027343.011719.058593.023438.085937.035156l.042969.019532.070312.027343.050782.019531.066406.027344.109375.046875.175781.070313.054688.023437.101562.042969.066406.027344.054688.023437.0625.023438.058594.027343.050781.019532.066406.03125.046875.015625.066406.03125.042969.015625.070313.03125.039062.015625.269531.113281.019531.011719.066407.027343.050781.019532.066406.027344.046875.019531.066407.027343.046874.023438.070313.027344.039063.015625.105468.046875c.089844.039062.175782.078125.261719.113281l.03125.011719.070313.03125.046874.019531.0625.027344.050782.023437.0625.027344.050781.019531.0625.027344.050781.023437.066406.027344.027344.011719.152344.066406.105469.046875.042969.019532.066406.027343.046875.019531.070312.03125.039063.015626.074218.035156.03125.015625.082032.035156.019531.007813c.089844.039062.179687.078124.269531.117187l.105469.046875.039063.019531.070312.03125.042969.019531.074219.03125.03125.015626.082031.035156.019531.007812c.132812.058594.261719.117188.390625.175782l.019531.007812.082032.035156.03125.015625.074218.03125.035156.019531.082032.035157.019531.007812c.160156.074219.332031.152344.492187.226563l.023438.007812.082031.039063.027344.011719.082031.039062.027344.011719.085938.039062.011718.003907c.132813.0625.265625.121093.394532.183593l.019531.007813.074219.035156.039062.015625.070312.035156.042969.015625.066407.035156.039062.015626.078125.035156.015625.007812c.132812.0625.273438.128906.402344.1875l.097656.046875.015625.007813c.027344.011718.058594.027344.089844.039062l.015625.007813.089844.042969.019531.011718c.171875.078125.335937.15625.503906.234375h.003906l.097657.046875.109374.054688c.242188.113281.480469.226562.722657.34375h.003906c.273437.132812.550781.269531.824219.402344 12.136718 5.910156 23.546875 13.210937 34 21.75 4.996094 4.039062 12.324218 3.265624 16.367187-1.734376 4.027344-4.980468 3.269531-12.28125-1.691406-16.332031-35.316406-28.75-79.453125-44.460937-124.988281-44.492187zm0 0" fill="#e1811c"/><path d="m221.589844 116.363281c-96.398438 0-174.542969 78.148438-174.542969 174.546875v1.015625l.003906.066407v.371093l.003907.066407v.292968l.003906.070313v.21875l.003906.078125v.210937l.003906.074219v.128906l.003906.15625v.074219l.003907.070313v.144531l.003906.074219v.140624l.003906.070313v.144531l.003907.074219v.148437l.003906.070313v.074219l.003906.070312v.144532l.003906.074218v.070313l.003906.074219v.148437l.003907.0625v.082031l.003906.066406v.066407l.003906.078125v.066406l.003907.082031v.058594l.003906.082031v.074219l.007812.195313v.015624l.003906.078126v.066406l.003907.066406v.078125l.003906.070313v.070312l.003906.074219.003907.070312v.074219l.007812.140625v.078125l.007812.140625v.074219l.003907.066406.003906.078125.003906.070313v.070312l.007813.148438v.0625l.003906.082031.003906.058593.003906.085938v.058594l.003907.082031.003906.066406.003906.078125v.066406l.003907.074219.003906.070313.003906.074218c0 .046876.003906.09375.003906.140626l.003906.039062.003907.101562.003906.078126.003906.070312v.074219l.003907.066406.003906.070313.003906.078124.003906.058594.003906.082032v.066406l.003907.078125.003906.066406.003906.074219.003907.070312.003906.082032.003906.058593.003906.082031.003906.0625.003907.078126.007812.140624.003907.074219.011718.210938.003906.074219.003907.070312.003906.074219.003906.066406.007813.148437.003906.070313.003906.0625.003906.101563c.003907.039062.007813.078124.007813.117187l.003906.0625.003907.082031.003906.070313.007812.074219.003906.066406.003907.074218.003906.066407.003906.082031.003907.058594.007812.082031.003906.066406.003906.078125.003907.066406.003906.070313.007813.074219.007812.140625.003906.074219.007813.070312.007812.140625.003907.074219.007812.070312.003906.078125.003906.058594.007813.085937.003906.0625.003907.078126.003906.0625.007812.085937.003906.058594.007813.101562.003906.039063.007813.113281v.03125l.015625.1875.007812.097656.003907.046875.003906.097656.011718.140626.003907.054687.007812.089844.003907.054687.007812.085938.003906.0625.007813.078125.003906.070312.007813.070313.003906.070312.007812.074219.003906.066406.007813.078125.003906.0625.007813.082032.003906.0625.007812.078124.003907.066407.007812.082031.003907.054688.007812.089843.003906.054688.007813.082031.007812.0625.003907.082031.007812.058594.007812.097656.003907.046875c.007812.09375.015625.1875.023437.28125l.003906.050782.011719.089843.003907.0625.007812.082031.003906.058594.007813.082032.007812.0625.003907.082031.007812.0625.007812.078125.007813.066406.003906.074219.007813.0625.007812.082031.003906.0625.007813.078125.007813.066406.007812.074219.003906.070312.007813.074219.007812.0625.007813.082031.007812.0625.003906.078126.007813.0625.007813.078124.007812.066407.007812.085937.003907.050782.011719.097656.003906.046875.011718.117187.003907.023438.015625.140625.003906.058593.007812.082032.007813.066406.015625.148438.007812.066406.007813.082031.007813.058594.007812.078125.007812.066406.007813.070312.007813.066407.007812.078125.007812.066406.007813.074219.003906.0625.011719.078125.007812.066406.007813.074219.007813.0625.007812.078125.003906.066406.011719.074219.007813.066406.007812.074219.015625.140625.007813.0625.007812.082031.007812.054688.011719.085937.003907.046875c.003906.03125.007812.058594.011718.09375v.019531c.015625.121094.027344.238281.042969.355469l.003906.039062.011719.089844.007812.050782.007813.085937.007813.054687.011718.078126.003906.0625.011719.082031.007813.058593.007812.078126.007813.0625.019531.136718.007812.082032.007813.0625.011719.074218.007812.070313.007813.066406.007812.070313.011719.074218.007812.066406.007813.074219.011719.0625.007812.078125.007813.0625.011719.078125.007812.0625.007812.078125.027344.191406c.019532.152344.042969.308594.0625.464844l.003906.035156.011719.089844.007813.050782.011718.082031.007813.058593.03125.21875.007813.0625.011718.074219.007813.066407.007812.070312.011719.070312.011719.074219.007812.058594.011719.082031.007812.058594.03125.21875.007813.0625.011719.078125.007812.054687.011719.085938.007813.058594.011718.078125.011719.066406.007813.070313.011718.066406.011719.078125.003906.023437c.015625.113282.03125.226563.046875.339844l.007813.046875.011719.078125.007812.0625.011719.074219.011719.0625.011718.078125.007813.066406.011719.066406.011718.074219.007813.070313.011719.066406.011718.074218.007813.0625.011719.078126.011718.0625.023438.140624.011718.074219.007813.0625.011719.074219.011718.066406.011719.074219.007813.0625.011718.074219.011719.0625.011719.078125.007812.054687.023438.128906.011719.097657.003906.015625.019531.117187.003906.019531c.011719.078126.023438.152344.035157.230469l.003906.023438.015625.082031.007812.058594.023438.140625.011719.066406.011719.070313.011718.074218.011719.0625.011719.074219.011718.0625.011719.078125.011719.0625.035156.210938.011719.066406.011719.074218.011718.066407.023438.140625.011719.066406.023437.140625.011719.0625.015625.078125.007812.054688.015626.082031.007812.058593.015625.078126.007813.058593.015624.082031.007813.046876.015625.089843c.007812.03125.011719.054688.015625.089844l.023437.113281.023438.140625.011719.066407.015625.078124.007812.058594.015625.082032.011719.054687.015625.085937.007813.050782.015624.082031.011719.054687.011719.082032.011719.058594.015625.074218.011718.0625.011719.078125.011719.054688.015625.082031.011719.058594.011718.082031.011719.050781.015625.085938.011719.046875.015625.09375.007812.039062c.003907.027344.011719.066407.019532.09375l.007812.050781.015625.085938.011719.050781.015625.085938.007813.050781.019531.085938v.007812c.023437.117188.042969.230469.066406.347656l.011719.050782.015625.085937.007812.046875.019531.089844.007813.050781.027344.136719.015625.074218.011718.066407.015626.074219.082031.410156.011719.0625.015624.074218.011719.058594.015625.082032.011719.054687.015625.078125.011719.0625.015625.070312.015625.074219.011719.066407.015624.0625.015626.074218.027343.136719.007813.046875c.03125.15625.066406.316406.097656.472656l.003906.019532.019532.085937.011718.050781.019532.085938.007812.050781.019531.085937.011719.046876.019531.089843.007813.046875.019531.085938.011719.050781.015625.085937.011719.050782.019531.085937.007812.046875.019531.089844.011719.046875.019531.085937.011719.050782.015625.085937.011719.046875.019531.089844.011719.042969c.003906.027343.011719.066406.019531.09375l.007813.039062.019531.09375.011719.042969.019531.09375.003906.019531c.046875.210938.09375.414063.140625.625l.003907.023438.023437.105469.007813.027343.023437.097657.007813.039062.019531.09375.011719.039062.019531.09375.011719.046876.019531.085937.011719.046875.019531.085938.011719.050781.019531.082031.011719.050781.019531.085938.011719.046875.019531.089844.007812.042968.023438.089844.011719.046875.019531.089844.007812.039062.023438.097657.007812.03125.027344.101562.003906.019531.027344.117188v.003906c.050781.214844.101563.425781.152344.640625l.003906.015625c.007813.03125.015625.070313.027344.101563l.007812.03125.023438.101562.007812.035156.023438.09375.007812.039063.023438.097656.007812.035156.023438.097657.011719.035156.023437.097656.007813.035156.023437.097656.011719.039063.023437.097656.007813.03125.023437.097657.007813.035156.027344.101562.007812.03125.023438.097656.011718.039063.023438.097656.003906.023438.027344.109375.007812.027344c.050782.203124.105469.40625.15625.605468l.003906.027344.023438.089844.011719.046875.027343.097656.03125.125.011719.042969c.007813.023437.015625.0625.023438.089844l.011719.039062.019531.089844.015625.046875.023437.089843.007813.042969.023437.085938.015625.050781c.007813.03125.011719.050781.019532.082031l.011718.046875.023438.085938.015625.046875.03125.125.027343.101562.007813.03125.027344.097657.007812.035156.027344.101562.007813.023438.027343.109375.003907.007812c.066406.253907.136718.507813.207031.761719v.011719c.011719.039062.019531.070312.03125.109375l.007812.023437.027344.105469.007813.027344c.007812.035156.019531.070312.027343.101562l.007813.03125.027344.097656.011718.035157.023438.09375.011718.042969.027344.089843.011719.039063.023437.09375.011719.035156.027344.097656.007813.035156.027343.09375.011719.042969.027344.09375.007812.03125.027344.101563.007812.023437.03125.109375.003907.015625.03125.113281.007812.019532c.058594.207031.117188.414062.175781.617187l.003907.011719.03125.109375.007812.023437c.011719.039063.019531.066407.03125.105469l.007813.027344.027344.09375.007812.039063.027344.09375.011718.039062.027344.09375.011719.035156.027344.097656.011719.03125.027343.097657.011719.035156.027344.09375.011718.039063.027344.09375.011719.039062.027344.089844.011719.039062.027343.09375.011719.035156.027344.097657.007812.023437.03125.109375c.074219.253907.152344.511719.230469.761719l.003906.011719.03125.109375.007813.023437.03125.097657.007812.03125.03125.097656.011719.035156.027344.089844.011719.042968.027343.089844.011719.039063.027344.089843.015625.042969.027343.085938.011719.042969.027344.085937.015625.046875.027344.089844.007812.035156.042969.128906.03125.097656.007813.027344.03125.101563.003906.015625c.09375.292968.1875.585937.28125.878906v.003906l.035156.113282.007812.019531.035157.109375.007812.015625c.011719.039062.023438.074219.035157.109375l.003906.023437.042968.128907.03125.101562.011719.03125.035157.101562.003906.023438.078125.234375.007812.019531.035157.113282.003906.011718c.136718.417969.277344.84375.417968 1.261719h.003907l.078125.234375.007812.027344c.011719.03125.023438.066406.035156.097656l.007813.03125.035156.101562.007813.027344c.011718.03125.023437.070313.035156.101563l.011719.023437.03125.101563.011719.027343.035156.105469.003906.015625c.015625.039063.027344.078125.039062.113282l.003907.011718.042969.117188v.007812c.015624.042969.027343.074219.039062.117188l.007812.015625c.113282.332031.230469.664062.347657.996093v.003907c.027343.078125.054687.160156.085937.238281l.003906.015625.039063.113281.007813.015625c.011718.035157.023437.070313.035156.105469l.007812.023438.039063.109374.007812.015626.042969.128906.039062.105468.007813.015626c.011719.039062.023437.074218.039063.113281l.003906.015625.039062.109375.007813.015625.039062.113281.003907.011719c.015624.035156.03125.078125.042968.113281v.007813c.136719.375.269532.742187.410156 1.117187l.003907.007813.042969.117187.003906.007813.039062.113281.007813.015625.039062.105468.007813.023438.039062.101562.007813.027344.039062.105469.007813.015625.039062.105469.007813.023437.039062.105469.007813.015625c.011718.035156.027344.074219.039062.113281l.007813.011719.042969.113281v.003907c.171874.457031.34375.90625.523437 1.363281v.003906c.03125.085937.0625.164063.097656.246094v.003906c.015625.042969.03125.078125.046875.121094v.003906l.046875.113281.003907.015625.042968.113281.007813.007813.042969.117187.003906.007813.046875.117187v.007813l.046875.117187.003906.003907c.195312.496093.386719.980469.589844 1.476562v.003907l.046875.121093.003906.003907.046875.113281.003906.011719.046875.117187.003907.003906c.015624.042969.027343.074219.046874.113281l.003907.015626c.015625.035156.03125.078124.046875.113281v.003906c.21875.53125.4375 1.058594.660156 1.585937l.003906.011719c.019532.039063.03125.070313.050782.113281l.003906.011719.042968.105469.011719.019531.042969.105469.003906.015625c.019532.039063.03125.070313.046875.109375l.007813.011719c.015625.039062.03125.074219.046875.113281l.003906.003906c.222656.53125.453125 1.058594.683594 1.582032.035156.082031.066406.160156.105469.242187v.003906c9.773437 22.214844 24.0625 42.15625 41.960937 58.550781 4.746094 4.335938 12.105469 4 16.4375-.746093 4.328125-4.734375 4.003906-12.078125-.722656-16.417969-31.222657-28.683594-49.015625-69.125-49.066407-111.523438 0-83.410156 67.859376-151.273437 151.273438-151.273437 34.8125.019531 68.558594 12.027344 95.558594 34 4.980468 4.0625 12.3125 3.320313 16.375-1.660156 4.0625-4.976563 3.320312-12.308594-1.660156-16.371094-10.445313-8.527344-21.839844-15.8125-33.960938-21.71875-.277344-.132813-.550781-.265625-.828125-.398437-.242187-.117188-.480469-.230469-.722656-.347657h-.003907c-.03125-.015625-.066406-.03125-.097656-.046875l-.007812-.003906-.101563-.046875c-.167969-.082031-.335937-.160156-.503906-.238281l-.019531-.011719-.089844-.039063-.015625-.007812-.089844-.042969-.019531-.007812-.09375-.042969c-.003906-.003906.003906 0 0 0-.136719-.066406-.269531-.125-.402344-.1875l-.015625-.007812-.078125-.035157-.039062-.019531-.070313-.03125-.039062-.019531-.070313-.03125-.039062-.019531-.074219-.035157-.019531-.007812c-.132813-.0625-.261719-.121094-.394532-.179688l-.011718-.007812-.085938-.039063-.027344-.011718-.082031-.039063-.109375-.046875-.023437-.011719c-.164063-.074219-.332031-.148437-.496094-.222656l-.019531-.011719-.078125-.035156-.039063-.015625-.070312-.035156-.03125-.011719-.085938-.039062-.015625-.007813c-.132812-.058594-.257812-.113281-.390625-.171875l-.019531-.011719-.082031-.035156-.03125-.015625-.074219-.03125-.042969-.019531-.070312-.03125-.039063-.015625-.105469-.046875c-.089843-.039063-.183593-.082031-.273437-.121094l-.019531-.007813-.078125-.035156-.105469-.046875-.042969-.019531-.066406-.027344-.050781-.023437-.0625-.027344-.046875-.019531-.066407-.03125-.035156-.015625-.152344-.0625-.03125-.015625-.066406-.027344-.046875-.019531-.0625-.027344-.050781-.023437-.066406-.027344-.046875-.019532-.0625-.027343-.046875-.023438-.070313-.027343-.03125-.015626-.261719-.109374-.035156-.015626-.074218-.03125-.039063-.019531-.070313-.027343-.046874-.019532-.0625-.027344-.050782-.023437-.0625-.023437-.050781-.023438-.066406-.027344-.023438-.011718c-.085937-.035157-.179687-.074219-.269531-.113282l-.035156-.015625-.070313-.027343-.042969-.019532-.070312-.027344-.042969-.019531-.070312-.027343-.050781-.023438-.058594-.023438-.0625-.027343-.054688-.023438-.0625-.027343-.105468-.042969-.050782-.019531-.0625-.027344-.054687-.023438-.117188-.046875-.054687-.023437-.066406-.027344-.046876-.019531-.070312-.027344-.042969-.019531-.089843-.035156-.027344-.011719-.113282-.046875-.039062-.015625-.074219-.03125-.050781-.019531-.066406-.027344-.054688-.023438-.058594-.023437-.054687-.023438-.0625-.023437-.054687-.023438-.074219-.027344-.039063-.019531-.09375-.039062-.054687-.019531-.082031-.035157-.046876-.015625-.070312-.03125-.046875-.015625-.070313-.03125-.046874-.019531-.066407-.023438-.050781-.023437-.074219-.027344-.039062-.015625-.105469-.042968-.011719-.003907-.117187-.046875-.023438-.007812-.09375-.039063-.042968-.015625-.074219-.03125-.042969-.015625-.074219-.03125-.046875-.019531-.066406-.027344-.050781-.019531-.0625-.023437-.058594-.023438-.226563-.085938-.042968-.019531-.074219-.027343-.046875-.019532-.070312-.027344-.046876-.019531-.074218-.027343-.042969-.019532-.074219-.027344-.042968-.015624-.089844-.035157-.027344-.011719-.117188-.046874-.007812-.003907-.109375-.039062-.035156-.015625-.082031-.03125-.039063-.015625-.082031-.03125-.039063-.011719-.078125-.03125-.042968-.015625-.085938-.035156-.027344-.011719c-.042968-.015625-.074218-.027344-.117187-.042969h-.003907l-.117187-.046875-.027344-.011718-.089843-.03125-.042969-.019532-.074219-.027344-.046875-.015624-.074219-.027344-.042968-.019532-.078126-.027343-.039062-.015625-.089844-.035156-.027344-.007813-.242187-.09375-.023437-.007813c-.03125-.011718-.0625-.023437-.09375-.035156l-.035157-.011718-.078125-.03125-.046875-.015626-.078125-.03125-.035156-.011718-.09375-.035156-.023438-.007813c-.085937-.03125-.160156-.058594-.242187-.089844l-.019531-.007812-.101563-.039063-.023437-.007812-.09375-.035156-.035156-.011719-.085938-.03125-.035156-.015625-.082032-.027344-.039062-.015625-.101562-.035156-.015626-.007813c-.125-.046875-.238281-.085937-.367187-.132812l-.019531-.007813-.097656-.035156-.027344-.007813-.125-.046874c-.03125-.011719-.070313-.023438-.101563-.035157l-.015625-.007812c-.125-.042969-.238281-.085938-.367187-.128907l-.019531-.007812-.105469-.039062-.015625-.003907-.101563-.039062-.027343-.007813-.101563-.035156-.019531-.007812c-.039063-.015626-.074219-.027344-.117188-.042969-.085937-.027344-.164062-.058594-.25-.085938l-.015625-.007812-.109375-.035157-.015625-.007812-.105469-.035156-.019531-.007813-.101562-.035156-.023438-.007813-.101562-.039062-.019531-.003906c-.125-.042969-.246094-.085938-.371094-.128906l-.117188-.039063-.125-.046875-.023437-.007812-.101563-.035157-.023437-.007812-.109375-.035157-.011719-.003906-.25-.085937-.007813-.003907-.113281-.039062-.019531-.003906-.101562-.035156-.023438-.007813-.097656-.035156-.03125-.007813-.097656-.035156-.019532-.003906c-.128906-.042969-.246094-.085938-.371094-.128906l-.015624-.003907-.109376-.035156-.015624-.007813-.105469-.035156-.023438-.003906-.105469-.035156-.019531-.007813-.109375-.035156-.011718-.003906c-.128907-.042969-.246094-.085938-.375-.125l-.011719-.003907c-.03125-.011718-.078125-.027343-.109375-.035156l-.023438-.007812-.101562-.035156-.019532-.003907-.109374-.035156-.015626-.007813c-.128906-.039062-.246093-.078124-.375-.121093l-.007812-.003907-.109375-.035156-.03125-.007812-.09375-.03125-.03125-.011719-.09375-.027344-.027344-.007812-.109375-.039063h-.011718c-.125-.042968-.246094-.082031-.375-.121094l-.019532-.007812-.105468-.03125-.019532-.007812-.105468-.03125-.019532-.007813-.113281-.035156-.007813-.003907c-.042968-.011718-.078124-.027343-.121093-.039062h-.003907c-.085937-.027344-.167968-.054688-.253906-.078125l-.015625-.007813c-.03125-.007812-.074219-.023437-.105469-.03125l-.027343-.011718-.089844-.027344-.039063-.011719-.089843-.027343-.03125-.007813-.101563-.03125-.019531-.007813c-.128906-.039062-.246094-.074218-.375-.113281l-.019531-.007812-.101563-.03125-.027343-.007813-.097657-.03125-.027343-.007812-.097657-.027344-.027343-.011719-.378907-.113281c-.039062-.011719-.082031-.023438-.117187-.035156l-.027344-.007813-.101562-.03125-.023438-.007812c-.03125-.007813-.066406-.019531-.097656-.027344l-.03125-.007813-.097656-.03125-.023438-.007812c-.128906-.039062-.246094-.074219-.375-.109375l-.019531-.007813-.105469-.03125-.019531-.003906-.105469-.03125-.027344-.007812-.101562-.03125-.019532-.003906c-.042968-.015626-.078124-.023438-.121093-.035157l-.003907-.003906c-.085937-.023437-.167968-.046875-.253906-.074219h-.003906c-.042969-.011718-.082031-.023437-.125-.035156l-.011719-.003906-.109375-.03125-.023437-.007813c-.03125-.007812-.070313-.019531-.101563-.027343l-.027344-.007813c-.03125-.011719-.066406-.019531-.097656-.03125l-.027344-.007813c-.128906-.035156-.246093-.070312-.375-.105468l-.019531-.007813-.101562-.027343-.035157-.007813-.09375-.027344-.027343-.007812c-.03125-.011719-.070313-.019531-.101563-.03125l-.023437-.003907-.117188-.035156h-.003906c-.128906-.035156-.253906-.070312-.382813-.109375l-.125-.03125-.023437-.007812-.097656-.027344-.03125-.007813-.101563-.03125-.023437-.003906c-.128907-.035156-.25-.070312-.378907-.105468h-.003906l-.121094-.035157-.019531-.003906-.109375-.03125-.015625-.003906-.113281-.03125-.015625-.003907-.117187-.03125-.007813-.003906c-.175781-.046875-.339844-.089844-.511719-.136718l-.019531-.003907-.109375-.027343-.015625-.007813-.117187-.03125h-.007813c-.175781-.046875-.339844-.089844-.515625-.136719l-.011719-.003906-.113281-.027344-.019531-.007812-.105469-.027344-.027344-.003906-.113281-.03125h-.003906c-.132813-.035156-.257813-.066406-.386719-.101563l-.019531-.003906-.109375-.027344-.023438-.007812-.101562-.027344-.027344-.003906-.101562-.027344-.023438-.007813-.113281-.027343-.011719-.003907-.257812-.0625-.007813-.003906-.121094-.03125h-.011719l-.109374-.03125-.027344-.003906c-.035156-.007812-.074219-.019531-.105469-.027344l-.019531-.003906-.113282-.03125h-.015624c-.128907-.035156-.253907-.066406-.386719-.097656h-.003907l-.121093-.03125-.019531-.003906-.109376-.027344-.019531-.003906-.105469-.027344-.027343-.007813-.113281-.027343h-.007813c-.089844-.023438-.171875-.042969-.261719-.0625l-.003906-.003907-.121094-.027343-.023437-.007813-.105469-.023437-.019531-.007813-.109375-.023437-.023438-.003907-.125-.03125-.121094-.03125h-.007812l-.257812-.0625-.015626-.003906-.113281-.023437-.019531-.007813-.105469-.023437-.027343-.003907-.125-.03125-.113282-.027343h-.015625c-.085937-.023438-.167969-.042969-.257812-.0625h-.011719l-.117188-.027344-.019531-.007813-.105469-.023437-.027343-.003906-.105469-.023438-.019531-.007812c-.03125-.007813-.074219-.015626-.109375-.023438l-.019532-.003906c-.132812-.03125-.257812-.058594-.390624-.089844l-.125-.027344-.027344-.007812-.101563-.023438-.023437-.003906-.109375-.023438-.015625-.003906-.125-.027344h-.003906c-.132813-.03125-.261719-.058593-.390626-.089843l-.019531-.003907-.109375-.023437-.027344-.003906-.097656-.023438-.035156-.003906c-.03125-.007813-.066406-.015625-.097656-.023437l-.023438-.003907-.117187-.027343h-.011719c-.089844-.019532-.167969-.039063-.257812-.058594l-.019532-.003906-.109375-.023438-.023437-.003906-.101563-.023438-.035156-.007812-.097656-.019532-.027344-.003906c-.035156-.007812-.074219-.015625-.105469-.023437l-.023437-.003907c-.132813-.027343-.253907-.054687-.386719-.082031l-.015625-.003906-.109375-.023437-.03125-.007813-.09375-.019531-.039062-.007813-.09375-.019531-.03125-.003906-.109376-.023438-.015624-.003906c-.089844-.019531-.171876-.035156-.261719-.054688h-.011719l-.113281-.023437-.03125-.007813-.097657-.019531-.03125-.007812-.09375-.019531-.039062-.003907-.097656-.023437-.027344-.003906c-.132812-.027344-.253906-.050782-.386719-.078126l-.027343-.003906-.097657-.019531-.03125-.007813-.101562-.019531-.03125-.003906-.097657-.019531-.03125-.007813-.097656-.019531-.03125-.003906-.257812-.050782h-.007813l-.121093-.023437-.027344-.003906c-.035156-.007813-.0625-.015625-.097656-.019531l-.035157-.007813-.09375-.019531-.039062-.003906-.09375-.019532-.03125-.007812-.390625-.070313-.011719-.003906-.113281-.023437-.027344-.003907-.105469-.019531-.023437-.003906-.101563-.019532-.035156-.003906-.101563-.019531-.023437-.003906c-.132813-.027344-.253906-.046875-.390625-.074219l-.023438-.003906c-.035156-.003906-.074218-.011719-.105468-.019532l-.027344-.003906-.101562-.019531-.03125-.003906-.101563-.019531-.027344-.003907c-.03125-.007812-.082031-.015625-.113281-.019531l-.015625-.003906c-.128906-.023438-.261719-.046875-.390625-.070313l-.023438-.003906-.105468-.019531-.03125-.003906-.101563-.019532-.023437-.003906-.113282-.019531-.019531-.003907-.261719-.042968-.007812-.003906-.125-.019532-.015625-.003906-.109375-.015625-.03125-.007813-.097656-.015624-.035156-.007813c-.03125-.003906-.0625-.007813-.097657-.015625l-.03125-.003906-.109375-.019532-.019531-.003906c-.089844-.015625-.171875-.027344-.261719-.042968l-.015625-.003907c-.035156-.003906-.078125-.011719-.113281-.015625l-.03125-.007812c-.03125-.003906-.0625-.007813-.09375-.015625l-.039062-.003907-.09375-.015624-.035157-.007813-.105469-.015625-.019531-.003906-.125-.019532-.007812-.003906c-.089844-.011718-.171875-.027344-.261719-.039062l-.023438-.003906-.105468-.019532-.03125-.003906-.09375-.015625-.042969-.007813-.089844-.011718-.039062-.007813-.109375-.015625-.015625-.003906-.265625-.042969h-.011719l-.140625-.023437-.105469-.015625-.03125-.003907-.097656-.015624-.035156-.007813-.089844-.011719-.042969-.007812-.109375-.015625-.015625-.003907-.261718-.039062-.027344-.003906-.101563-.015625-.035156-.003907-.097656-.015624-.035157-.003907-.09375-.015625-.039062-.003906-.101562-.015625-.027344-.003906c-.042969-.007813-.082032-.011719-.128906-.019531l-.132813-.019532-.019531-.003906c-.03125-.003906-.074219-.011719-.109375-.015625l-.03125-.003906-.101563-.015625-.027344-.003906-.101562-.015626-.035156-.003906-.105469-.015625h-.023437l-.113282-.019531h-.015625l-.261719-.039062-.035156-.003907-.097656-.011719-.035156-.007812-.09375-.011719-.035156-.003906c-.035157-.003906-.070313-.011719-.101563-.015625l-.027344-.003906-.109375-.011719-.023437-.003906-.398438-.054688-.015625-.003906-.109375-.011719-.035156-.007812-.101563-.011719-.027343-.003906-.105469-.015625-.027344-.003906-.117187-.015626h-.011719l-.269531-.035156h-.015625l-.105469-.015625-.042969-.003906-.089844-.011719-.042968-.007812-.085938-.007813-.042968-.007812-.097657-.011719-.03125-.003906-.121093-.015625h-.007813c-.089844-.011719-.175781-.023438-.265625-.035157l-.027344-.003906-.101562-.011718-.035156-.003907-.097657-.011719-.140625-.015624-.019531-.003907-.117187-.015625h-.019532l-.265625-.03125-.011719-.003906-.121093-.011719-.023438-.003906-.140625-.015625-.097656-.011719-.03125-.003906-.109375-.011719-.019531-.003906-.125-.015625h-.007813c-.046875-.003906-.089843-.011719-.136719-.015625h-.007812c-.039062-.007812-.082031-.011719-.121094-.015625l-.03125-.003906-.101562-.011719-.035156-.003906c-.035157-.003906-.0625-.003906-.09375-.007813l-.039063-.007812-.09375-.007813-.039063-.003906-.113281-.011719-.011719-.003906c-.09375-.007813-.179687-.019531-.269531-.027344l-.019531-.003906-.109375-.011719-.042969-.003906-.089844-.007812-.039062-.007813-.089844-.007813-.042968-.003906-.089844-.011718-.042969-.003907c-.03125-.003906-.066406-.007812-.101563-.011719h-.027343l-.132813-.015624h-.007812l-.121094-.011719-.039062-.003907-.089844-.011718-.046875-.003906-.082031-.007813-.050782-.003906-.082031-.011719-.140625-.011719-.035156-.003906-.261719-.027344h-.023437l-.109376-.011719-.035156-.003906-.09375-.007812-.042968-.003906-.089844-.007813-.042969-.007813-.085937-.007812-.046876-.003906c-.035156-.003906-.0625-.003906-.097656-.007813l-.03125-.003906-.261718-.023437-.039063-.003907-.089844-.007812-.050781-.003907-.082031-.007812-.046875-.003906-.128906-.011719-.09375-.007813-.039063-.003906-.101563-.011718h-.027343c-.046875-.003907-.089844-.007813-.136719-.011719l-.128906-.011719-.035156-.003906-.097657-.007813-.035156-.003906-.09375-.007813-.042969-.003906-.09375-.007812-.039062-.003906-.101563-.007813-.027343-.003906c-.09375-.007813-.171876-.011719-.265626-.019531l-.03125-.003907-.097656-.007812-.128906-.011719-.050781-.003906-.085938-.003906-.042969-.003907-.089843-.007812-.042969-.003907c-.035156-.003906-.074219-.007812-.109375-.007812l-.019531-.003906-.132813-.007813-.019531-.003906-.113281-.007813-.042969-.003906-.085938-.003906-.050781-.007812-.082031-.003907-.050781-.003906-.082031-.007813-.046876-.003906-.089843-.003906-.042969-.003906c-.035156-.003906-.074219-.003906-.109375-.007813h-.019531c-.046875-.003906-.085938-.007812-.132813-.011719l-.035156-.003906-.097656-.003906-.039063-.003906-.089844-.007813-.046874-.003906-.085938-.003906-.046875-.003907-.089844-.007812h-.039062l-.109375-.007812-.023438-.003907-.132812-.007812h-.007813l-.125-.007813-.03125-.003906-.101562-.003906-.039063-.003906-.09375-.007813h-.042968l-.089844-.007813-.042969-.003906-.089844-.003906-.042969-.003906-.109374-.007813h-.023438c-.042969-.003906-.082031-.003906-.128906-.007812l-.039063-.003907-.09375-.003906-.042969-.003906-.085937-.003906-.050781-.003906-.082032-.003907-.050781-.003906-.078125-.003906-.054687-.003907-.097657-.007812h-.03125l-.132812-.007812h-.023438l-.109374-.007813h-.042969l-.085938-.007813h-.050781l-.085938-.007812h-.046874l-.082032-.007812h-.050781l-.085937-.003907-.046876-.003906-.101562-.007813h-.027344l-.128906-.007812h-.050781l-.082031-.003906-.054688-.003906-.078125-.003907-.046875-.003906-.089844-.003906h-.042968l-.089844-.007813h-.042969l-.09375-.003906-.039063-.003906-.265624-.011719h-.035157l-.097656-.007813h-.039063l-.09375-.003906-.042968-.003906-.09375-.003906h-.039063l-.101562-.003906h-.03125l-.125-.007813h-.007813l-.136718-.003906h-.003907l-.128906-.007813h-.03125l-.101563-.003906h-.042968l-.089844-.003906-.042969-.003906c-.027343 0-.0625 0-.089843-.003907h-.046876l-.097656-.003906h-.03125c-.09375-.003906-.175781-.007813-.269531-.011719h-.027344l-.101562-.003906h-.046875l-.089844-.003906-.042969-.003906h-.089843l-.046876-.003907c-.027343 0-.0625 0-.09375 0l-.039062-.003906h-.101562l-.03125-.003906-.132813-.003907h-.023437l-.109376-.003906h-.042968l-.089844-.003906h-.042969l-.089843-.003906h-.046876l-.089843-.003906h-.042969l-.089844-.003907h-.046875l-.113281-.003906h-.015625l-.128906-.003906h-.054688l-.082031-.003907h-.050781l-.082031-.003906h-.050782l-.082031-.003906h-.140625l-.042969-.003906h-.132812l-.132813-.003906h-.011718c-.039063-.003907-.078126-.003907-.121094-.003907h-.042969l-.089844-.003906h-.132812l-.050781-.003906h-.132813l-.097656-.003907h-.167969l-.132812-.003906h-.035157c-.027343 0-.066406 0-.097656 0l-.050781-.003906h-.136719l-.074219-.003906h-.191406l-.101562-.003906h-.027344c-.09375 0-.175782 0-.269532 0l-.039062-.003907h-.277344l-.082031-.003906h-.316406c-.046875 0-.085938 0-.132813 0h-.039062l-.097656-.003906h-.714844zm0 0" fill="#daefe6"/><path d="m221.589844 186.179688c57.839844 0 104.726562 46.890624 104.726562 104.730468 0 57.835938-46.886718 104.726563-104.726562 104.726563s-104.726563-46.890625-104.726563-104.726563c.066407-57.8125 46.914063-104.664062 104.726563-104.730468m0-23.269532c-70.691406 0-128 57.304688-128 128 0 70.691406 57.308594 127.996094 128 127.996094s128-57.304688 128-127.996094c0-70.695312-57.308594-128-128-128zm0 0" fill="#70c5aa"/><path d="m308.863281 215.273438c-6.425781-.003907-11.636719-5.210938-11.636719-11.640626 0-3.082031 1.226563-6.042968 3.410157-8.222656l29.089843-29.09375c4.542969-4.542968 11.910157-4.542968 16.453126 0 4.546874 4.546875 4.546874 11.914063 0 16.457032l-29.089844 29.089843c-2.179688 2.1875-5.140625 3.414063-8.226563 3.410157zm0 0" fill="#9c0503"/><path d="m105.226562 418.90625c-6.425781 0-11.636718-5.210938-11.632812-11.636719 0-3.085937 1.226562-6.042969 3.40625-8.226562l23.273438-23.269531c4.542968-4.546876 11.910156-4.546876 16.453124 0 4.542969 4.542968 4.542969 11.910156 0 16.453124l-23.273437 23.273438c-2.179687 2.183594-5.140625 3.410156-8.226563 3.40625zm0 0" fill="#230022"/><path d="m320.144531 192.355469c-6.839843-6.839844-17.457031-8.144531-25.75-3.171875l-107.714843 66.816406-66.8125 107.714844c-4.976563 8.292968-3.667969 18.90625 3.167968 25.746094 6.839844 6.839843 17.457032 8.144531 25.75 3.171874l107.714844-66.816406 66.8125-107.714844c4.976562-8.292968 3.667969-18.90625-3.167969-25.746093zm0 0" fill="#b13b39"/><path d="m119.867188 363.714844c-5.988282 9.980468-2.753907 22.925781 7.230468 28.917968 6.675782 4.003907 15.011719 4.003907 21.6875 0l107.714844-66.816406-69.820312-69.816406zm0 0" fill="#f0a319"/><g fill="#593558"><path d="m361.226562 302.542969h-23.273437c-6.425781 0-11.636719-5.207031-11.636719-11.632813 0-6.429687 5.210938-11.636718 11.636719-11.636718h23.273437c6.425782 0 11.636719 5.207031 11.636719 11.636718 0 6.425782-5.210937 11.632813-11.636719 11.632813zm0 0"/><path d="m105.226562 302.542969h-23.273437c-6.425781 0-11.636719-5.207031-11.636719-11.632813 0-6.429687 5.210938-11.636718 11.636719-11.636718h23.273437c6.425782 0 11.636719 5.207031 11.636719 11.636718 0 6.425782-5.210937 11.632813-11.636719 11.632813zm0 0"/><path d="m221.589844 186.179688c-6.421875.003906-11.632813-5.199219-11.636719-11.621094 0-.003906 0-.007813 0-.011719v-23.273437c0-6.429688 5.210937-11.636719 11.636719-11.636719 6.425781 0 11.636718 5.210937 11.636718 11.636719v23.273437c.003907 6.421875-5.199218 11.632813-11.621093 11.632813-.007813 0-.011719 0-.015625 0zm0 0"/><path d="m221.589844 442.179688c-6.421875.003906-11.632813-5.199219-11.636719-11.621094 0-.003906 0-.007813 0-.015625v-23.269531c0-6.429688 5.210937-11.636719 11.636719-11.636719 6.425781 0 11.636718 5.207031 11.636718 11.636719v23.269531c.003907 6.425781-5.199218 11.632812-11.621093 11.636719-.007813 0-.011719 0-.015625 0zm0 0"/></g><path d="m128.5 209.453125c-3.085938.003906-6.046875-1.222656-8.226562-3.40625l-23.273438-23.273437c-4.542969-4.546876-4.542969-11.910157 0-16.457032 4.542969-4.542968 11.910156-4.542968 16.453125 0l23.273437 23.273438c4.542969 4.546875 4.542969 11.914062 0 16.457031-2.183593 2.179687-5.140624 3.40625-8.226562 3.40625zm0 0" fill="#230022"/><path d="m337.953125 418.90625c-3.085937.003906-6.046875-1.222656-8.226563-3.40625l-23.273437-23.273438c-4.542969-4.542968-4.542969-11.910156 0-16.453124 4.542969-4.546876 11.910156-4.546876 16.453125 0l23.273438 23.269531c4.546874 4.546875 4.542968 11.914062 0 16.457031-2.183594 2.183594-5.140626 3.40625-8.226563 3.40625zm0 0" fill="#230022"/><path d="m281.917969 209.453125h-.195313l-.003906.003906c-.34375 0-.691406.015625-1.039062.035157.121093-.003907.242187-.003907.363281-.003907h.277343c.210938-.015625.425782-.027343.640626-.035156zm0 0" fill="#9fd9c5"/><path d="m256.5 290.910156c0 19.277344-15.628906 34.90625-34.910156 34.90625s-34.910156-15.628906-34.910156-34.90625c0-19.28125 15.628906-34.910156 34.910156-34.910156s34.910156 15.628906 34.910156 34.910156zm0 0" fill="#47153d"/><path d="m233.226562 279.273438c0 12.851562-10.417968 23.273437-23.273437 23.273437-12.851563 0-23.273437-10.421875-23.273437-23.273437 0-12.855469 10.421874-23.273438 23.273437-23.273438 12.855469 0 23.273437 10.417969 23.273437 23.273438zm0 0" fill="#724d71"/></svg>