<svg height="512pt" viewBox="0 0 512.001 512" width="512pt" xmlns="http://www.w3.org/2000/svg"><path d="m305.90625 467.703125h-175.132812v-355.535156c0-2.207031 1.792968-4 4-4h167.132812c2.207031 0 4 1.792969 4 4zm0 0" fill="#d5dfe8"/><path d="m275 108.167969v359.535156h30.90625v-355.535156c0-2.207031-1.792969-4-4-4zm0 0" fill="#cad2db"/><path d="m218.339844 79.292969c-4.144532 0-7.5 3.359375-7.5 7.5v21.378906c0 4.140625 3.355468 7.5 7.5 7.5 4.144531 0 7.5-3.359375 7.5-7.5v-21.378906c0-4.140625-3.359375-7.5-7.5-7.5zm0 0" fill="#50475e"/><path d="m246.15625 43.269531c0-23.898437-12.453125-43.269531-27.816406-43.269531-15.363282 0-27.816406 19.371094-27.816406 43.269531 0 23.894531 12.453124 43.265625 27.816406 43.265625 15.363281 0 27.816406-19.371094 27.816406-43.265625zm0 0" fill="#ffbd54"/><path d="m218.339844 0c-5.730469 0-11.058594 2.699219-15.480469 7.320312 7.4375 7.765626 12.332031 20.964844 12.332031 35.945313 0 14.984375-4.894531 28.183594-12.332031 35.949219 4.425781 4.621094 9.75 7.320312 15.480469 7.320312 15.363281 0 27.816406-19.371094 27.816406-43.269531 0-23.894531-12.453125-43.265625-27.816406-43.265625zm0 0" fill="#ff943d"/><path d="m301.90625 108.167969c2.207031 0 4 1.792969 4 4v30.027343c0 12.082032-9.800781 21.867188-21.894531 21.867188-10.527344 0-16.03125-6.003906-18.890625-11.722656-.746094-1.492188-3.003906-.933594-3.003906.734375v46.667969c0 11.871093-9.234376 21.972656-21.097657 22.386718-12.457031.4375-22.683593-9.511718-22.683593-21.851562v-17.816406c0-1.675782-2.253907-2.21875-3.007813-.726563-2.847656 5.65625-8.339844 11.523437-18.878906 11.523437-10.542969 0-16.039063-5.875-18.886719-11.53125-.753906-1.496093-3.007812-.949218-3.007812.722657v29.546875c0 12.070312-9.796876 21.855468-21.882813 21.855468-12.097656 0-21.894531-9.785156-21.894531-21.855468v-99.828125c0-2.207031 1.789062-4 4-4zm0 0" fill="#cad2db"/><path d="m275 108.171875v34.027344c0 6.007812-2.425781 11.441406-6.351562 15.394531 3.261718 3.628906 8.125 6.46875 15.363281 6.46875 12.09375 0 21.894531-9.785156 21.894531-21.867188v-30.023437c0-2.210937-1.792969-4-4-4zm0 0" fill="#bfc7d1"/><path d="m402.441406 385.332031h-86.964844c-16.992187 0-30.773437-13.777343-30.773437-30.773437v-1.605469c0-22.539063 18.273437-40.808594 40.808594-40.808594h66.894531c22.539062 0 40.808594 18.269531 40.808594 40.808594v1.605469c0 16.996094-13.777344 30.773437-30.773438 30.773437zm0 0" fill="#685c79"/><path d="m393.289062 312.144531h-30.902343c22.046875 0 39.921875 18.675781 39.921875 41.710938v.023437c0 17.375-13.476563 31.457032-30.105469 31.457032h30.90625c16.625 0 30.105469-14.082032 30.105469-31.457032v-.023437c0-23.035157-17.875-41.710938-39.925782-41.710938zm0 0" fill="#594f69"/><g fill="#ffbd54"><path d="m143.453125 358.640625c0-15.429687-10.605469-27.9375-23.691406-27.9375-13.085938 0-23.695313 12.507813-23.695313 27.9375s10.609375 27.9375 23.695313 27.9375c13.085937 0 23.691406-12.507813 23.691406-27.9375zm0 0"/><path d="m106.824219 408.972656c-6.542969-11.335937-22.679688-14.265625-36.042969-6.550781-13.359375 7.710937-18.886719 23.152344-12.34375 34.484375s22.679688 14.265625 36.039062 6.550781c13.363282-7.714843 18.890626-23.152343 12.347657-34.484375zm0 0"/><path d="m168.726562 402.433594c-13.363281-7.714844-29.496093-4.78125-36.039062 6.550781s-1.015625 26.773437 12.34375 34.488281c13.363281 7.714844 29.496094 4.78125 36.039062-6.550781 6.542969-11.332031 1.015626-26.773437-12.34375-34.488281zm0 0"/></g><path d="m94.46875 359.558594c-13.359375-7.714844-29.496094-4.78125-36.039062 6.550781-6.542969 11.332031-1.015626 26.773437 12.34375 34.488281 13.363281 7.714844 29.5 4.78125 36.042968-6.550781 6.542969-11.332031 1.015625-26.773437-12.347656-34.488281zm0 0" fill="#ffd659"/><path d="m143.453125 444.386719c0-15.429688-10.605469-27.9375-23.691406-27.9375-13.085938 0-23.695313 12.507812-23.695313 27.9375 0 15.425781 10.609375 27.933593 23.695313 27.933593 13.085937 0 23.691406-12.507812 23.691406-27.933593zm0 0" fill="#ffd659"/><path d="m181.078125 366.097656c-6.542969-11.332031-22.679687-14.265625-36.039063-6.550781-13.359374 7.714844-18.886718 23.15625-12.34375 34.488281 6.539063 11.332032 22.675782 14.265625 36.039063 6.550782 13.359375-7.714844 18.886719-23.15625 12.34375-34.488282zm0 0" fill="#ffd659"/><path d="m143.453125 401.511719c0 13.085937-10.605469 23.695312-23.691406 23.695312-13.085938 0-23.695313-10.609375-23.695313-23.695312 0-13.085938 10.609375-23.691407 23.695313-23.691407 13.085937 0 23.691406 10.605469 23.691406 23.691407zm0 0" fill="#d5dfe8"/><path d="m429.816406 457.5h-141.714844c-16.339843 0-29.585937-13.246094-29.585937-29.585938v-2.695312c0-23.761719 19.261719-43.019531 43.023437-43.019531h114.84375c23.757813 0 43.019532 19.257812 43.019532 43.019531v2.695312c0 16.339844-13.246094 29.585938-29.585938 29.585938zm0 0" fill="#594f69"/><path d="m417.910156 382.199219h-30.90625c22.917969 0 41.492188 19.96875 41.492188 44.601562v.023438c0 16.941406-12.773438 30.675781-28.535156 30.675781h30.90625c15.761718 0 28.535156-13.734375 28.535156-30.675781v-.023438c0-24.632812-18.578125-44.601562-41.492188-44.601562zm0 0" fill="#50475e"/><path d="m463.066406 512h-414.132812c-10.242188 0-18.542969-8.300781-18.542969-18.542969v-25.753906h451.21875v25.753906c0 10.242188-8.300781 18.542969-18.542969 18.542969zm0 0" fill="#e62753"/><path d="m496.546875 483.15625h-481.09375c-8.535156 0-15.453125-6.917969-15.453125-15.453125s6.917969-15.453125 15.453125-15.453125h481.09375c8.535156 0 15.453125 6.917969 15.453125 15.453125s-6.917969 15.453125-15.453125 15.453125zm0 0" fill="#ff2c5c"/><path d="m496.546875 452.25h-30.90625c8.535156 0 15.453125 6.917969 15.453125 15.453125s-6.917969 15.453125-15.453125 15.453125h30.90625c8.535156 0 15.453125-6.917969 15.453125-15.453125s-6.917969-15.453125-15.453125-15.453125zm0 0" fill="#e62753"/></svg>